<?xml version="1.0" encoding="utf-8"?>
<!-- Generator: Adobe Illustrator 24.2.0, SVG Export Plug-In . SVG Version: 6.00 Build 0)  -->
<svg version="1.1" xmlns="http://www.w3.org/2000/svg" xmlns:xlink="http://www.w3.org/1999/xlink" x="0px" y="0px"
	 viewBox="0 0 1080 1080" style="enable-background:new 0 0 1080 1080;" xml:space="preserve">
<style type="text/css">
	.st0{display:none;}
	.st1{display:inline;fill:#A5FFFD;}
	.st2{opacity:0.1;}
	.st3{fill:#FFFFFF;}
	.st4{fill:#333333;}
	.st5{fill:#A5FFFD;}
	.st6{fill:#FFDE69;}
	.st7{opacity:0.4;}
	.st8{fill:#49BDBF;}
</style>
<g id="Layer_4" class="st0">
	<rect x="-23.36" y="-16.67" class="st1" width="1120.18" height="1116.83"/>
</g>
<g id="color">
	<ellipse class="st2" cx="540" cy="842.51" rx="368.37" ry="74.44"/>
	<polygon class="st3" points="656.83,424.97 673.82,399.81 683.97,364.95 683.09,336.71 675.59,303.61 656.61,269.63 623.07,241.83 
		595.27,228.15 557.32,216.68 540.99,214.91 529.52,193.73 508.78,172.99 491.57,164.16 470.39,163.06 457.15,170.12 450.97,178.5 
		451.41,189.98 454.5,201.89 462.88,215.57 437.73,221.31 424.05,203.66 409.05,191.74 398.01,185.12 380.8,184.68 366.68,192.63 
		358.3,204.1 354.77,214.69 355.65,226.61 360.06,235.43 368.89,247.79 358.96,255.95 333.36,278.9 314.39,305.82 303.8,333.62 
		298.5,360.98 300.27,389.22 309.97,416.58 324.98,438.65 291.88,453.21 257.02,478.36 229.66,507.49 214.21,533.09 197,569.27 
		187.74,609.87 184.21,651.35 188.62,677.39 194.8,695.04 204.51,705.63 220.39,714.9 221.72,732.55 227.89,757.7 241.57,781.98 
		262.76,808.45 285.7,825.66 302.03,835.37 347.26,853.91 423.17,868.91 473.92,879.06 505.69,883.47 527.75,886.12 554.23,880.83 
		575.86,868.03 585.78,868.47 625.94,860.53 643.59,855.23 655.07,857 769.8,860.97 788.78,860.09 806.43,852.58 819.23,840.67 
		828.06,817.72 828.5,792.57 824.08,770.06 815.7,755.94 809.08,748.88 784.37,739.61 768.48,736.52 777.75,703.43 779.95,669 
		779.07,640.32 796.28,638.11 808.64,630.61 816.58,619.14 820.11,599.72 815.26,577.66 799.37,545 779.51,514.99 755.68,487.63 
		730.09,465.13 694.34,441.3 	"/>
	<polygon class="st4" points="407.06,340.24 381.91,344.65 358.96,358.77 350.57,370.25 345.28,384.37 344.4,397.17 348.81,409.08 
		355.43,416.14 366.02,421.44 391.61,426.29 416.33,425.85 437.07,419.23 451.63,410.85 461.34,392.75 462.66,371.57 453.4,356.13 
		442.36,349.06 429.12,343.33 	"/>
	<path class="st4" d="M605.2,323.47l22.95,3.09l16.77,8.38l10.59,12.36l5.3,15.89l-1.32,16.33l-11.91,17.21l-20.3,9.27l-22.51,5.3
		c0,0-22.95-4.41-21.62-3.97c1.32,0.44-17.65-8.38-17.65-8.38l-11.03-12.36l-3.09-16.77l4.41-15.45l13.24-15l12.8-9.27L605.2,323.47
		z"/>
	<polygon class="st5" points="548.27,539.26 561.07,540.15 594.17,550.74 624.62,564.86 643.59,577.66 650.21,586.92 657.72,621.79 
		660.36,675.18 658.6,688.42 629.47,713.58 585.34,742.7 572.55,746.23 555.34,741.82 507.23,723.28 476.78,709.16 467.96,702.54 
		460.46,652.68 455.6,603.25 460.46,593.1 490.91,569.27 521.8,550.74 	"/>
	<polygon class="st6" points="599.91,463.36 603.44,473.95 603.44,488.51 595.93,499.99 584.46,509.7 568.57,518.96 552.25,524.7 
		556.66,553.83 557.54,559.56 553.57,564.42 546.07,564.86 541.65,560.89 537.68,527.79 513.41,529.11 480.76,524.7 461.34,514.11 
		452.07,504.84 447.22,490.72 447.66,486.31 460.02,485.87 463.55,498.22 472.37,506.17 490.91,514.99 518.71,518.08 541.21,516.76 
		562.84,510.14 576.08,502.64 587.55,493.81 592.85,479.69 588.87,467.77 	"/>
	<polygon class="st3" points="586.23,366.28 593.73,369.81 595.93,376.43 591.52,382.16 586.67,383.93 578.72,381.72 576.08,375.1 
		577.84,368.92 	"/>
	<polygon class="st3" points="426.48,376.87 420.74,378.63 417.21,384.81 418.53,390.99 424.71,394.96 432.65,393.64 436.19,387.46 
		434.86,379.51 	"/>
	<polygon points="514.74,388.78 505.03,390.99 501.5,394.52 504.14,399.37 513.85,401.14 523.12,397.61 524.44,392.31 	"/>
	<path class="st4" d="M678.79,478.25c-16.99-10.7-33.04-20.47-57.7-23.72c-9.4-1.24,12.14-9.27,12.14-9.27l12.69-8.99l10.92-11.31
		l20.85,8l20.85,10.59l31.55,21.57l19.09,15.17l24.16,26.81l17.21,22.84l12.25,21.51l10.59,22.18l6.29,17.87l0.33,14.23l-4.3,15.22
		l-7.06,9.65l-9.82,6.56l-12.25,2.65l-7.5,0.5l-6.4-37.23l-8.27-24.82l-14.89-31.44l-14.89-20.52l-18.87-21.84l-26.81-21.18
		L678.79,478.25z"/>
	<path class="st4" d="M332.15,516.37c20.08-21.29,33.1-30.12,51.3-41.54c2.64-1.66-11.03-5.52-11.03-5.52l-18.53-7.5l-24.27-18.53
		l-4.63-4.63l-33.1,14.56l-20.96,14.34l-24.27,19.42l-20.74,29.13l-11.69,16.99l-14.34,31.11l-8.83,31.33l-3.53,32.88l-0.66,33.76
		l6.62,22.51l8.61,17.21l13.24,10.15l18.53,2.65l23.39-4.85l17.65-15.45l10.59-21.18l4.41-30.01l1.32-40.16l7.06-32.66l21.73-38.78
		L332.15,516.37z"/>
	<polygon class="st4" points="768.48,736.52 788.06,741.43 806.93,748.05 818.51,759.64 825.46,771.22 828.44,794.72 829.1,813.25 
		825.13,828.15 817.85,840.72 806.43,852.58 794.35,859.26 782.11,860.91 764.56,861.57 706.31,858.93 643.59,855.23 671.56,844.36 
		705.65,823.84 732.46,797.7 747.35,777.51 759.6,758.31 	"/>
	<path class="st4" d="M422.84,737.29c-37.07-2.98-63.79,28.75-68.84,58.91c-4.52,27.03,7.28,57.92,36.41,66.53
		c1.85,0.55,29.13,5.3,29.13,5.3l8.94,2.32l17.54,3.14l63.22,10.92l16.88,1.65l30.78-5.3l18.98-12.74l11.8-13.4l9.6-26.15
		l-1.32-26.81l-11.25-19.2l-9.6-8.27l-27.47-11.25l-64.54-14.89L422.84,737.29z"/>
	<path class="st3" d="M508.34,646.72c-0.32,5.73-28.24-7.06-31.77-3.09c-3.53,3.97,0.88,24.71-3.53,24.27s-14.56-39.05-7.06-41.26
		c3.67-1.08,13.44,5.71,22.29,9.49C497.48,640.07,508.56,642.66,508.34,646.72z"/>
	<path class="st3" d="M473.73,672.1c1.96-0.26,2.74,1.74,2.82,3.78c0.08,2.03-0.78,4.1-2.35,4.25c-1.57,0.15-2.68-2.12-2.83-3.96
		C471.22,674.32,472.09,672.32,473.73,672.1z"/>
	<g>
		<g>
			<path d="M559.57,654.71c1.25,12.89,2.76,25.75,4.3,38.6c1.32,10.98,2.7,21.96,4,32.95c0.3,2.52,0.78,5.12,0.81,7.66
				c0.02,2.29,3.58,2.29,3.56,0c-0.02-2.09-0.4-4.22-0.65-6.3c-0.53-4.52-1.09-9.04-1.64-13.56c-1.56-12.73-3.12-25.45-4.56-38.19
				c-0.8-7.05-1.57-14.1-2.26-21.16C562.91,652.45,559.35,652.43,559.57,654.71L559.57,654.71z"/>
		</g>
	</g>
	<g class="st7">
		<g>
			<path class="st8" d="M549.65,577.64c1.28,13.71,2.29,27.45,3.51,41.17c0.2,2.26,3.76,2.28,3.56,0
				c-1.22-13.72-2.23-27.45-3.51-41.17C553,575.38,549.44,575.36,549.65,577.64L549.65,577.64z"/>
		</g>
	</g>
	<g class="st7">
		<g>
			<path class="st8" d="M520.24,655.66c-13.5,8.28-26.49,17.32-38.42,27.75c-1.73,1.51,0.8,4.02,2.52,2.52
				c11.71-10.23,24.46-19.07,37.7-27.19C523.98,657.54,522.2,654.46,520.24,655.66L520.24,655.66z"/>
		</g>
	</g>
	<g class="st7">
		<g>
			<path class="st8" d="M564.74,634.36c-2.64-0.98-5.31-1.36-8.12-1.17c-2.64,0.18-4.96,0.93-7.26,2.23c-1.99,1.13-0.2,4.2,1.8,3.07
				c1.03-0.58,1.95-1.05,3.08-1.37c0.48-0.13,0.96-0.24,1.45-0.3c-0.29,0.04,0.39-0.04,0.46-0.04c0.23-0.02,0.45-0.04,0.68-0.05
				c2.48-0.15,4.64,0.19,6.98,1.06c0.9,0.33,1.95-0.37,2.19-1.24C566.26,635.55,565.65,634.69,564.74,634.36L564.74,634.36z"/>
		</g>
	</g>
	<g class="st7">
		<g>
			<path class="st8" d="M639.53,673.87c-13.84-8.48-27.62-17.01-42.03-24.49c-2.03-1.05-3.83,2.02-1.8,3.07
				c14.41,7.49,28.2,16.01,42.03,24.49C639.69,678.14,641.48,675.06,639.53,673.87L639.53,673.87z"/>
		</g>
	</g>
	<path class="st4" d="M371.54,251.43c15.89-10.37,60.35-26.2,67.19-27.97c6.84-1.77-4.74-5.24-4.74-5.24l-7.06-8.83l-11.47-12.36
		l-12.36-7.5c0,0-11.47-4.85-12.8-5.3c-1.32-0.44-18.09,4.41-18.09,4.41l-9.71,7.5l-6.62,11.47l-1.77,12.8l4.41,11.47L371.54,251.43
		z"/>
	<path class="st4" d="M540.66,216.84l-11.14-23.11l-16.99-19.2l-20.96-10.37l-18.31,0.22l-11.47,3.97l-9.27,7.5l-2.65,11.91
		l7.94,20.74l5.07,7.06l42.58-4.41c0,0,1.21,3.7,6.07,3.7S537.13,216.4,540.66,216.84z"/>
</g>
<g id="lines">
	<g>
		<g>
			<path d="M437.68,224.27c19.1-4.92,38.64-7.88,58.36-8.62c5.64-0.21,11.29-0.24,16.94-0.11c1.92,0.05,3.56-1.67,3.56-3.56
				c0-1.97-1.63-3.51-3.56-3.56c-20.29-0.49-40.63,1.27-60.54,5.2c-5.58,1.1-11.13,2.36-16.64,3.78c-1.86,0.48-2.99,2.55-2.49,4.38
				C433.82,223.67,435.81,224.75,437.68,224.27L437.68,224.27z"/>
		</g>
	</g>
	<g>
		<g>
			<path d="M539.37,217.53c32.7,4.19,65.48,14.89,92.1,34.76c11.97,8.93,22.52,19.95,30.44,32.63c6.7,10.73,11.32,22.58,14.46,34.81
				c1.28,5,2.42,10.72,3.05,15.41c0.62,4.62,1.03,10.36,1.07,15.44c0.07,10.86-1.11,20.2-4.09,30.64
				c-2.94,10.33-7.07,19.32-13.1,28.49c-3.21,4.89-6.22,8.74-10.17,13.1c-3.98,4.39-8.29,8.49-12.85,12.28
				c-22.57,18.76-51.41,29.78-79.97,36.34c-18.5,4.25-37.43,6.8-56.32,8.47c-17.66,1.56-35.43,2.15-53.14,1.36
				c-28.04-1.24-57.11-5.93-82.61-17.29c-5.47-2.43-10.8-5.18-15.92-8.27c-4.83-2.92-9.58-6.22-13.56-9.49
				c-8.3-6.8-15.3-14.49-20.81-23.14c-5.81-9.12-9.48-17.99-11.96-28.53c-3.46-14.74-4.23-30.33-2.07-45.33
				c4.66-32.38,22.53-60.87,47.11-81.99c6.56-5.63,13.55-10.71,20.86-15.32c3.86-2.44,0.29-8.6-3.59-6.14
				c-29.48,18.64-54.11,45.37-65.66,78.69c-5.33,15.37-7.64,31.83-6.83,48.08c0.67,13.37,3.11,26.84,8.29,39.23
				c8.81,21.09,24.75,37.96,44.15,49.79c23.66,14.43,51.17,21.49,78.46,24.85c35.98,4.42,72.58,2.21,108.34-3.08
				c33.05-4.89,66.4-13.82,94.83-31.93c20.56-13.1,38.18-31.22,48.09-53.71c9.02-20.47,11.38-42.92,8.24-64.99
				c-3.78-26.59-15.08-51.89-33.77-71.34c-23.19-24.13-54.98-38.78-87.21-46.34c-8.53-2-17.16-3.48-25.85-4.59
				c-1.91-0.24-3.56,1.81-3.56,3.56C535.81,216.1,537.46,217.28,539.37,217.53L539.37,217.53z"/>
		</g>
	</g>
	<g>
		<g>
			<path d="M541.42,209.75c-4.58-9.58-10.45-18.61-17.35-26.67c-8-9.34-17.97-17.54-29.8-21.4c-6.06-1.98-12.58-2.65-18.9-1.84
				c-6.47,0.83-13.25,2.75-18.56,6.67c-4.19,3.09-7.36,7.24-8.7,12.33c-1.21,4.61-0.92,9.47,0.09,14.09
				c1.72,7.95,5.61,15.41,9.88,22.28c0.34,0.54,0.67,1.08,1.01,1.61c1.03,1.62,3.17,2.27,4.87,1.28c1.61-0.94,2.31-3.24,1.28-4.87
				c-1.64-2.58-3.22-5.19-4.65-7.89c-0.94-1.77-1.82-3.56-2.62-5.39c-0.1-0.23-0.2-0.47-0.3-0.71c0.21,0.48,0.2,0.47,0.02,0.03
				c-0.21-0.52-0.41-1.03-0.61-1.56c-0.37-0.98-0.71-1.97-1.02-2.98c-0.63-2.02-1.02-4.05-1.42-6.11c-0.08-0.4,0.06,0.43,0.05,0.4
				c-0.04-0.1-0.04-0.32-0.05-0.44c-0.03-0.26-0.06-0.51-0.08-0.77c-0.05-0.51-0.08-1.02-0.1-1.53c-0.04-1.01-0.02-2.02,0.07-3.03
				c0.02-0.21-0.01-0.55,0.08-0.75c-0.2,0.49-0.09,0.6,0.01-0.01c0.08-0.49,0.18-0.98,0.3-1.46c0.12-0.48,0.26-0.96,0.41-1.43
				c0.08-0.24,0.16-0.47,0.25-0.71c0.04-0.1,0.08-0.2,0.12-0.3c0.13-0.41-0.39,0.82-0.07,0.16c0.45-0.92,0.91-1.82,1.49-2.68
				c0.13-0.19,0.26-0.37,0.39-0.55c0.34-0.5-0.45,0.53,0.08-0.09c0.38-0.45,0.77-0.89,1.19-1.31c0.38-0.38,0.77-0.74,1.17-1.08
				c0.22-0.19,0.46-0.38,0.68-0.56c-0.61,0.49,0.06-0.04,0.33-0.22c1.08-0.75,2.21-1.41,3.39-2c0.32-0.16,0.63-0.31,0.96-0.46
				c0.13-0.06,0.88-0.38,0.58-0.26c-0.29,0.12,0.61-0.24,0.77-0.3c0.42-0.16,0.84-0.31,1.26-0.45c1.56-0.53,3.16-0.97,4.77-1.33
				c0.77-0.17,1.55-0.32,2.34-0.45c0.33-0.05,0.66-0.11,0.99-0.15c-0.7,0.1,0.49-0.05,0.69-0.07c1.5-0.15,3-0.21,4.5-0.19
				c1.46,0.02,2.92,0.13,4.37,0.3c-0.79-0.1,0.24,0.04,0.43,0.07c0.35,0.06,0.71,0.12,1.06,0.18c0.7,0.13,1.4,0.28,2.1,0.45
				c1.43,0.35,2.85,0.77,4.24,1.26c0.62,0.22,1.24,0.45,1.85,0.7c0.14,0.06,0.28,0.12,0.42,0.17c0.5,0.21-0.5-0.22-0.01,0
				c0.37,0.17,0.74,0.33,1.11,0.5c2.59,1.21,5.07,2.64,7.44,4.24c0.55,0.37,1.1,0.75,1.64,1.14c0.29,0.21,0.58,0.42,0.87,0.64
				c0.12,0.09,0.25,0.19,0.37,0.28c0.79,0.59-0.31-0.25,0.14,0.1c1.13,0.89,2.24,1.81,3.32,2.77c2.16,1.91,4.21,3.94,6.16,6.06
				c1.96,2.12,3.81,4.33,5.58,6.61c-0.38-0.48,0.02,0.03,0.17,0.23c0.21,0.28,0.42,0.55,0.62,0.83c0.44,0.59,0.87,1.18,1.3,1.78
				c0.78,1.09,1.54,2.19,2.29,3.31c2.66,3.99,5.1,8.13,7.28,12.4c0.46,0.89,0.9,1.8,1.34,2.7c0.83,1.73,3.31,2.19,4.87,1.28
				C541.91,213.58,542.25,211.49,541.42,209.75L541.42,209.75z"/>
		</g>
	</g>
	<g>
		<g>
			<path d="M438.82,217.86c-6.25-9.78-13.95-18.69-23.19-25.77c-8.25-6.32-18.37-11.25-28.99-11c-9.7,0.24-19.13,5.09-25.55,12.28
				c-6.15,6.88-9.6,15.9-9.35,25.15c0.32,12.28,6.68,23.35,15.29,31.78c3.28,3.21,8.31-1.82,5.03-5.03
				c-3.82-3.73-6.79-7.45-9.27-12.19c-1.17-2.23-1.66-3.39-2.43-5.84c-0.33-1.07-0.62-2.15-0.86-3.25
				c-0.09-0.43-0.18-0.86-0.25-1.29c-0.06-0.32-0.11-0.64-0.16-0.97c-0.12-0.78,0.04,0.52-0.04-0.34c-0.18-2.05-0.27-4.09-0.12-6.15
				c0.03-0.46,0.08-0.92,0.13-1.39c0.1-0.99-0.08,0.48,0.01-0.12c0.04-0.25,0.08-0.51,0.12-0.76c0.17-1,0.39-1.99,0.66-2.97
				c0.25-0.92,0.55-1.84,0.88-2.74c0.08-0.21,0.56-1.4,0.26-0.69c0.24-0.55,0.49-1.1,0.76-1.64c0.88-1.76,1.92-3.43,3.09-5.01
				c0.35-0.48-0.53,0.63,0.09-0.12c0.13-0.16,0.25-0.32,0.38-0.47c0.32-0.39,0.66-0.78,1-1.15c0.69-0.76,1.41-1.49,2.17-2.18
				c1.76-1.62,2.43-2.12,4.52-3.42c0.82-0.51,1.66-0.99,2.52-1.43c0.48-0.25,0.97-0.49,1.46-0.72c0.21-0.1,0.42-0.19,0.63-0.29
				c-0.54,0.24,0.38-0.15,0.49-0.19c1.1-0.42,2.22-0.77,3.36-1.05c0.5-0.12,1.01-0.23,1.52-0.33c0.28-0.05,0.56-0.1,0.85-0.15
				c0.77-0.13-0.44,0.03,0.41-0.05c2.22-0.2,4.42-0.2,6.64,0.04c0.65,0.07-0.84-0.14,0.25,0.03c0.23,0.04,0.45,0.07,0.68,0.11
				c0.57,0.1,1.14,0.21,1.7,0.34c1.14,0.26,2.27,0.57,3.38,0.93c2.45,0.8,3.79,1.38,6.15,2.62c2.18,1.14,4.28,2.43,6.31,3.84
				c9.19,6.39,17.2,15.62,23.3,25.17c1.03,1.62,3.16,2.27,4.87,1.28C439.15,221.78,439.86,219.49,438.82,217.86L438.82,217.86z"/>
		</g>
	</g>
	<g>
		<g>
			<path d="M627.48,296.77c-14.83,4.84-29.71,9.56-44.52,14.46c-2.23,0.74-4.46,1.45-6.66,2.26c-1.8,0.67-3.03,2.41-2.48,4.38
				c0.48,1.73,2.57,3.16,4.38,2.49c5.11-1.89,10.35-3.48,15.53-5.17c8.04-2.62,16.09-5.22,24.13-7.82
				c3.84-1.24,7.68-2.48,11.52-3.74c1.83-0.6,3.01-2.46,2.49-4.38C631.36,297.46,629.31,296.17,627.48,296.77L627.48,296.77z"/>
		</g>
	</g>
	<g>
		<g>
			<path d="M438.27,327.07c-14.12-3.47-28.28-6.8-42.32-10.55c-2.22-0.59-4.43-1.2-6.63-1.86c-1.84-0.55-3.88,0.66-4.38,2.49
				c-0.52,1.89,0.64,3.83,2.49,4.38c11.05,3.3,22.33,5.87,33.53,8.62c5.14,1.26,10.29,2.53,15.43,3.79c1.86,0.46,3.86-0.6,4.38-2.49
				C441.26,329.63,440.15,327.53,438.27,327.07L438.27,327.07z"/>
		</g>
	</g>
	<g>
		<g>
			<path d="M513.81,392.98c1.02-0.09,2.04-0.14,3.07-0.07c0.23,0.02,0.47,0.04,0.7,0.06c-0.64-0.07-0.08-0.01,0.05,0.02
				c0.51,0.1,1.01,0.21,1.5,0.36c0.25,0.08,1.22,0.52,0.46,0.13c0.31,0.16,0.62,0.3,0.91,0.47c0.14,0.08,0.27,0.18,0.41,0.26
				c0.39,0.22,0.1-0.1-0.17-0.15c0.22,0.04,0.53,0.49,0.68,0.64c0.1,0.1,0.44,0.42,0.03,0.01c-0.39-0.39-0.07-0.15-0.02,0.01
				c0.02,0.08,0.1,0.24,0.16,0.3c0.28,0.27-0.29-0.78-0.18-0.4c0.05,0.17,0.09,0.52,0.02-0.11c-0.09-0.78-0.15,0.26,0.01-0.51
				c0.13-0.65,0.03-0.25-0.01-0.09c-0.16,0.67,0.09-0.31,0.14-0.29c-0.12-0.08-0.39,1.14,0,0.11c-0.09,0.24-0.45,0.5-0.62,0.67
				c-0.21,0.2-0.89,0.69-0.26,0.26c-0.39,0.27-0.78,0.53-1.19,0.77c-0.35,0.2-0.72,0.38-1.08,0.55c0.65-0.31-0.49,0.17-0.65,0.23
				c-0.43,0.14-0.86,0.26-1.3,0.36c-0.23,0.05-0.45,0.09-0.68,0.14c-0.63,0.14,0.11,0.01-0.28,0.05c-0.94,0.09-1.87,0.08-2.81,0.05
				c-0.49-0.02-0.99-0.04-1.48-0.08c-0.24-0.02-0.47-0.04-0.71-0.06c-0.06-0.01-1.17-0.15-0.4-0.03c-0.81-0.12-1.61-0.27-2.39-0.5
				c-0.35-0.1-0.69-0.22-1.03-0.35c0.77,0.29-0.09-0.09-0.36-0.24c-0.71-0.39,0.36,0.45-0.17-0.11c-0.09-0.1-0.19-0.23-0.3-0.3
				c-0.33-0.22,0.29,0.61,0.18,0.23c-0.03-0.11-0.13-0.27-0.2-0.35c-0.26-0.3,0.12,0.67,0.13,0.28c0-0.11-0.06-0.3-0.11-0.41
				c-0.16-0.38,0.05,0.82,0.07,0.2c-0.03,0.89-0.11,0.6-0.01,0.34c-0.35,0.97-0.17,0.27,0.01,0.08c-0.61,0.65,0.09,0.01,0.31-0.25
				c0.29-0.34-0.52,0.28-0.09,0.07c0.21-0.1,0.4-0.26,0.6-0.38c0.17-0.1,0.35-0.2,0.53-0.29c0.06-0.03,0.98-0.45,0.31-0.17
				c0.97-0.41,2-0.71,3.02-0.96C511.85,393.26,512.95,393.08,513.81,392.98c1.84-0.2,3.65-1.49,3.56-3.56
				c-0.08-1.75-1.58-3.77-3.56-3.56c-2.88,0.31-5.74,0.8-8.43,1.92c-2.3,0.96-4.6,2.26-5.81,4.54c-1.17,2.2-0.89,4.9,0.51,6.92
				c1.39,2.01,3.57,3.17,5.89,3.82c5.19,1.46,11.13,1.34,16.04-0.91c3.99-1.83,8.1-6,5.77-10.64c-2.45-4.86-9.08-6.1-13.96-5.65
				c-1.85,0.17-3.65,1.51-3.56,3.56C510.34,391.21,511.83,393.17,513.81,392.98z"/>
		</g>
	</g>
	<g>
		<g>
			<path d="M600.71,328.03c2.39-0.33,5.83-0.55,8.64-0.53c1.27,0.01,2.53,0.05,3.79,0.14c0.74,0.05,1.48,0.11,2.22,0.19
				c0.24,0.03,0.49,0.05,0.73,0.08c0.24,0.03,0.48,0.06,0.72,0.09c-0.35-0.05-0.3-0.04,0.13,0.02c2.55,0.4,5.07,0.93,7.55,1.66
				c1.19,0.35,2.37,0.74,3.54,1.17c0.52,0.19,1.04,0.4,1.56,0.6c1.01,0.4-0.62-0.29,0.37,0.15c0.3,0.13,0.6,0.26,0.9,0.4
				c2.14,0.98,4.22,2.1,6.22,3.36c0.97,0.61,1.92,1.25,2.85,1.93c0.17,0.12,1.34,1.01,0.76,0.56c0.56,0.44,1.12,0.89,1.66,1.35
				c1.67,1.42,3.26,2.95,4.74,4.57c0.66,0.72,1.29,1.46,1.9,2.21c0.18,0.22,0.36,0.45,0.54,0.68c-0.53-0.67,0.07,0.09,0.14,0.19
				c0.34,0.46,0.67,0.92,1,1.39c1.16,1.67,2.22,3.42,3.16,5.23c0.46,0.88,0.87,1.77,1.28,2.68c0.36,0.8-0.19-0.51,0,0.01
				c0.08,0.21,0.17,0.41,0.25,0.61c0.19,0.49,0.38,0.98,0.55,1.47c0.63,1.8,1.14,3.64,1.49,5.51c0.08,0.44,0.15,0.89,0.23,1.33
				c0.14,0.79-0.02-0.57,0-0.02c0.01,0.23,0.05,0.46,0.07,0.68c0.1,1.1,0.12,2.2,0.08,3.3c-0.02,0.46-0.05,0.92-0.09,1.38
				c-0.03,0.28-0.06,0.55-0.09,0.83c0.08-0.81,0.04-0.3,0.01-0.12c-0.19,1.11-0.4,2.22-0.7,3.31c-0.28,1.02-0.6,2.02-0.98,3.01
				c-0.09,0.24-0.64,1.52-0.3,0.78c-0.24,0.54-0.49,1.08-0.75,1.61c-1,2.01-2.17,3.93-3.48,5.75c-0.18,0.26-0.37,0.51-0.56,0.76
				c-0.62,0.84,0.44-0.53-0.22,0.28c-0.34,0.41-0.67,0.83-1.02,1.23c-0.81,0.95-1.65,1.87-2.53,2.75c-3.71,3.75-7.01,6.2-11.68,8.83
				c-2.21,1.25-4.81,2.49-6.66,3.22c-2.54,1.01-5.16,1.84-7.81,2.5c-10.39,2.58-22.23,2.27-32.54-0.11
				c-2.52-0.58-5.02-1.3-7.46-2.16c-0.65-0.23-1.29-0.47-1.93-0.72c-0.21-0.08-0.42-0.17-0.63-0.25c-0.04-0.02-1.07-0.46-0.4-0.16
				c-1.17-0.51-2.32-1.05-3.46-1.64c-2.14-1.1-4.2-2.35-6.15-3.75c-0.21-0.15-1.32-1-0.77-0.57c-0.4-0.32-0.8-0.64-1.19-0.97
				c-0.92-0.78-1.81-1.61-2.66-2.47c-0.73-0.74-1.42-1.52-2.08-2.32c-0.16-0.19-0.31-0.38-0.46-0.57c0.52,0.66-0.08-0.12-0.15-0.21
				c-0.34-0.47-0.67-0.95-0.99-1.44c-0.58-0.89-1.11-1.81-1.6-2.75c-0.22-0.43-0.43-0.86-0.63-1.3c-0.06-0.12-0.42-1.02-0.1-0.21
				c-0.11-0.27-0.21-0.54-0.32-0.81c-0.76-2.02-1.29-4.12-1.59-6.25c0.13,0.89,0-0.12-0.02-0.25c-0.03-0.3-0.06-0.61-0.08-0.91
				c-0.04-0.52-0.06-1.03-0.08-1.55c-0.03-1.24,0-2.49,0.1-3.73c0.04-0.52,0.1-1.04,0.15-1.55c0.11-1.03-0.14,0.73,0.04-0.29
				c0.04-0.21,0.07-0.41,0.1-0.62c0.21-1.24,0.49-2.48,0.82-3.7c0.29-1.08,0.63-2.14,1.01-3.19c0.2-0.56,0.42-1.1,0.63-1.65
				c0.38-0.96-0.17,0.38,0.08-0.19c0.15-0.35,0.31-0.69,0.47-1.04c1.02-2.2,2.21-4.31,3.55-6.33c0.34-0.51,0.69-1.02,1.05-1.52
				c0.16-0.23,0.33-0.46,0.5-0.68c0.02-0.03,0.69-0.92,0.26-0.36c0.76-0.99,1.57-1.95,2.41-2.88c6.97-7.79,15.87-13.36,25.76-16.23
				C595.25,329,597.96,328.43,600.71,328.03c1.9-0.27,2.95-2.69,2.48-4.38c-0.56-2.04-2.47-2.76-4.38-2.49
				c-21.99,3.16-43.33,19.36-48.96,41.42c-2.51,9.84-1.45,20.49,4.23,29.06c5.79,8.74,14.92,14.49,24.63,17.99
				c11.08,4,23.54,5.27,35.23,3.94c11.92-1.35,23.27-5.79,32.76-13.17c7.96-6.18,14.73-14.73,17.22-24.64
				c2.23-8.89,0.21-17.9-3.94-25.9c-9.79-18.87-30.52-29.64-51.41-29.49c-3.28,0.02-6.52,0.34-9.76,0.79
				c-1.91,0.26-2.95,2.7-2.49,4.38C596.89,327.6,598.79,328.29,600.71,328.03z"/>
		</g>
	</g>
	<g>
		<g>
			<path d="M402.17,344.42c5.55-0.55,11.16-0.48,16.7,0.25c-0.77-0.1,0.34,0.05,0.41,0.06c0.34,0.05,0.67,0.1,1.01,0.16
				c0.67,0.11,1.34,0.23,2.01,0.36c1.44,0.28,2.88,0.6,4.3,0.97c2.59,0.67,5.14,1.5,7.63,2.48c0.31,0.12,0.61,0.25,0.92,0.37
				c-0.7-0.29,0.3,0.13,0.36,0.16c0.6,0.26,1.19,0.54,1.78,0.82c1.26,0.61,2.5,1.26,3.71,1.97c1.01,0.59,2,1.21,2.97,1.86
				c0.52,0.35,1.04,0.72,1.54,1.09c0.07,0.05,0.9,0.68,0.28,0.2c0.33,0.26,0.65,0.52,0.97,0.78c1.98,1.63,3.81,3.44,5.44,5.42
				c0.13,0.16,0.26,0.32,0.38,0.47c0.64,0.78-0.4-0.57,0.19,0.24c0.36,0.49,0.71,0.98,1.05,1.49c0.73,1.09,1.4,2.23,2.01,3.4
				c0.28,0.54,0.53,1.1,0.79,1.65c0.43,0.92-0.25-0.67,0.12,0.28c0.11,0.29,0.23,0.57,0.33,0.86c0.44,1.17,0.8,2.36,1.11,3.57
				c0.15,0.62,0.29,1.24,0.41,1.86c0.06,0.32,0.12,0.63,0.17,0.95c0.01,0.08,0.16,1.14,0.06,0.36c0.18,1.4,0.3,2.8,0.36,4.21
				c0.05,1.25,0.05,2.5-0.01,3.74c-0.02,0.51-0.06,1.01-0.1,1.52c-0.03,0.3-0.05,0.6-0.09,0.9c-0.02,0.17-0.2,1.45-0.06,0.54
				c-0.36,2.39-0.91,4.75-1.71,7.03c-0.19,0.54-0.39,1.06-0.6,1.59c-0.34,0.89,0.31-0.67-0.08,0.19c-0.08,0.17-0.15,0.34-0.23,0.51
				c-0.5,1.11-1.06,2.19-1.68,3.24c-0.56,0.97-1.17,1.92-1.82,2.83c-0.16,0.23-0.33,0.46-0.49,0.68c-0.08,0.11-0.67,0.85-0.13,0.18
				c-0.41,0.52-0.83,1.03-1.26,1.53c-1.51,1.74-3.17,3.34-4.93,4.82c-0.22,0.19-0.45,0.37-0.68,0.56c-0.09,0.07-0.87,0.67-0.21,0.17
				c-0.47,0.36-0.95,0.71-1.44,1.05c-1.03,0.72-2.08,1.41-3.16,2.06c-4.75,2.85-8.4,4.35-13.64,5.91c-2.75,0.81-5.54,1.47-8.36,1.98
				c-0.7,0.13-1.4,0.24-2.1,0.35c-0.35,0.05-0.71,0.11-1.06,0.16c-1.16,0.17,0.69-0.08-0.48,0.06c-1.45,0.18-2.9,0.33-4.35,0.44
				c-6.25,0.49-12.57,0.56-18.83,0.25c-6.06-0.3-10.57-0.79-16.36-2.11c-2.47-0.56-4.91-1.24-7.29-2.09
				c-0.57-0.2-1.14-0.41-1.7-0.63c-0.28-0.11-0.55-0.22-0.83-0.33c-0.92-0.37,0.66,0.3-0.24-0.1c-1.14-0.52-2.27-1.05-3.37-1.65
				c-0.98-0.53-1.94-1.1-2.88-1.72c-0.38-0.25-0.76-0.51-1.13-0.77c-0.22-0.16-0.44-0.32-0.66-0.48c-0.31-0.24-0.29-0.22,0.08,0.06
				c-0.14-0.11-0.28-0.22-0.42-0.34c-1.71-1.39-3.25-2.96-4.63-4.69c0.57,0.72,0.02,0.02-0.07-0.11c-0.15-0.21-0.3-0.43-0.45-0.64
				c-0.27-0.4-0.53-0.8-0.78-1.21c-0.58-0.94-1.09-1.92-1.55-2.93c-0.07-0.15-0.41-0.99-0.07-0.14c-0.1-0.25-0.2-0.5-0.3-0.76
				c-0.19-0.51-0.37-1.04-0.54-1.56c-0.37-1.17-0.66-2.37-0.89-3.58c-0.05-0.29-0.1-0.58-0.15-0.87c-0.02-0.14-0.15-1.12-0.04-0.23
				c-0.06-0.48-0.11-0.96-0.15-1.44c-0.1-1.24-0.14-2.48-0.11-3.72c0.03-1.15,0.12-2.28,0.24-3.42c0.1-0.96-0.13,0.77,0.02-0.19
				c0.05-0.28,0.09-0.57,0.14-0.85c0.11-0.66,0.24-1.32,0.39-1.97c0.52-2.27,1.24-4.5,2.13-6.65c-0.33,0.79,0.06-0.12,0.11-0.24
				c0.12-0.27,0.25-0.54,0.37-0.81c0.26-0.54,0.52-1.08,0.8-1.61c0.56-1.07,1.16-2.12,1.81-3.15c0.65-1.05,1.35-2.07,2.08-3.06
				c0.18-0.25,0.37-0.5,0.56-0.75c-0.47,0.62,0.16-0.2,0.22-0.27c0.46-0.58,0.93-1.14,1.42-1.7c1.7-1.96,3.54-3.8,5.49-5.52
				c0.5-0.44,1.01-0.87,1.52-1.3c0.26-0.21,0.52-0.42,0.78-0.63c0.03-0.02,0.9-0.7,0.34-0.27c1.18-0.9,2.39-1.76,3.62-2.58
				c2.35-1.56,4.8-2.97,7.32-4.23c1.3-0.65,2.62-1.26,3.95-1.84c-0.59,0.25,0.52-0.21,0.51-0.21c0.34-0.14,0.69-0.28,1.03-0.41
				c0.81-0.32,1.63-0.62,2.45-0.91c2.89-1.01,5.84-1.85,8.82-2.52c1.54-0.35,3.09-0.65,4.64-0.9
				C399.6,344.71,400.43,344.6,402.17,344.42c1.91-0.2,3.56-1.49,3.56-3.56c0-1.77-1.63-3.76-3.56-3.56
				c-13.11,1.37-26,5.44-36.99,12.85c-9.55,6.44-17.52,15.14-21.96,25.85c-4.01,9.67-4.37,20.85-0.12,30.51
				c4.13,9.39,12.85,15.4,22.2,18.87c11.28,4.19,23.78,5.08,35.72,4.92c12.57-0.17,25-1.82,36.59-6.91
				c9.53-4.19,18.21-10.99,23.38-20.15c5.37-9.5,6.68-21.21,4.05-31.77c-2.75-11.03-10.67-19.85-20.32-25.5
				c-10.22-5.98-22.26-8.81-34.05-9.01c-2.84-0.05-5.68,0.07-8.51,0.35c-1.91,0.19-3.56,1.5-3.56,3.56
				C398.62,342.64,400.25,344.61,402.17,344.42z"/>
		</g>
	</g>
	<g>
		<g>
			<path class="st4" d="M427.4,373.4c-5.46,0.02-10.28,3.06-12.41,8.12c-1.9,4.51-1.45,10.16,2.3,13.63
				c4.2,3.88,11.06,4.64,16.18,2.32c4.78-2.16,7.76-7.71,7.06-12.88C439.65,378.02,433.88,373.54,427.4,373.4
				c-1.86-0.04-3.64,1.67-3.56,3.56c0.09,1.96,1.56,3.52,3.56,3.56c0.3,0.01,0.59,0.03,0.89,0.04c0.92,0.04-0.48-0.14,0.05,0.01
				c0.49,0.13,0.98,0.25,1.47,0.39c0.61,0.18,0.02-0.01-0.1-0.06c0.24,0.11,0.48,0.22,0.71,0.35c0.19,0.1,0.37,0.21,0.56,0.33
				c0.11,0.07,0.22,0.14,0.32,0.21c0.32,0.23,0.28,0.19-0.11-0.1c0.3,0.11,0.7,0.62,0.91,0.85c0.12,0.13,0.43,0.38,0.48,0.55
				c-0.14-0.45-0.3-0.44-0.12-0.14c0.23,0.38,0.45,0.75,0.67,1.14c0.36,0.64,0-0.09-0.03-0.09c0.06,0,0.23,0.69,0.26,0.78
				c0.05,0.19,0.1,0.37,0.14,0.56c0.17,0.8-0.14,0.09,0.01-0.04c-0.07,0.06,0.03,1.03,0.02,1.14c-0.01,0.18-0.2,0.74,0,0.22
				c0.21-0.56-0.02,0.09-0.05,0.22c-0.1,0.47-0.24,0.9-0.39,1.35c-0.24,0.77,0.38-0.69-0.01,0.02c-0.08,0.14-0.14,0.28-0.22,0.42
				c-0.11,0.21-0.24,0.41-0.37,0.61c-0.03,0.05-0.48,0.71-0.14,0.23c0.34-0.48-0.13,0.14-0.18,0.2c-0.16,0.18-0.33,0.35-0.51,0.52
				c-0.12,0.11-0.25,0.22-0.37,0.33c-0.3,0.24-0.25,0.21,0.13-0.1c-0.14,0.1-0.28,0.19-0.42,0.28c-0.34,0.22-0.74,0.48-1.13,0.6
				c0.94-0.28-0.48,0.11-0.67,0.16c-0.27,0.07-0.55,0.12-0.82,0.17c0.14-0.02,0.75-0.05,0.08-0.03c-0.61,0.02-1.21,0.04-1.81,0
				c-0.29-0.02-0.58-0.05-0.87-0.08c0.83,0.08,0.19,0.02-0.02-0.02c-0.48-0.09-0.95-0.2-1.42-0.34c-0.16-0.05-0.32-0.1-0.48-0.16
				c-0.08-0.03-0.16-0.06-0.23-0.09c-0.36-0.14-0.31-0.12,0.17,0.07c-0.19,0.08-1.07-0.6-1.23-0.69c-0.65-0.38,0.41,0.42,0.09,0.08
				c-0.13-0.13-0.28-0.24-0.42-0.37c-0.16-0.15-0.3-0.32-0.46-0.47c-0.43-0.43,0.16,0.14,0.15,0.21c0.02-0.16-0.52-0.85-0.62-1.02
				c-0.33-0.58,0.17-0.04,0.05,0.14c0.04-0.06-0.21-0.65-0.24-0.75c-0.05-0.19-0.08-0.37-0.13-0.56c-0.19-0.79,0.04,0.84,0,0.01
				c-0.01-0.34-0.03-0.67-0.02-1c0.01-0.17,0.02-0.34,0.03-0.51c0.02-0.4,0.25-0.48-0.04,0.22c0.15-0.37,0.16-0.86,0.28-1.24
				c0.06-0.21,0.12-0.41,0.2-0.62c0.04-0.1,0.07-0.2,0.11-0.31c0.1-0.25,0.05-0.14-0.15,0.35c0.25-0.18,0.44-0.88,0.62-1.17
				c0.12-0.19,0.25-0.37,0.37-0.56c0.42-0.64-0.53,0.57,0,0.01c0.31-0.33,0.64-0.65,0.96-0.97c0.56-0.56-0.66,0.42,0.01-0.02
				c0.2-0.13,0.39-0.27,0.59-0.39c0.21-0.12,0.42-0.23,0.63-0.35c0.66-0.38-0.62,0.19,0.05-0.03c0.54-0.17,1.08-0.3,1.62-0.44
				c0.52-0.14-0.89,0.04,0,0c0.38-0.02,0.77-0.05,1.15-0.05c1.86-0.01,3.64-1.63,3.56-3.56C430.87,375.04,429.4,373.39,427.4,373.4z
				"/>
		</g>
	</g>
	<g>
		<g>
			<path class="st4" d="M586.46,368.92c-0.93-0.11-0.02,0.01,0.15,0.04c0.26,0.05,0.52,0.11,0.77,0.19c0.16,0.05,0.33,0.1,0.49,0.15
				c0.08,0.03,0.16,0.06,0.24,0.08c0.37,0.14,0.31,0.12-0.16-0.08c0.25-0.03,0.83,0.42,1.05,0.56c0.04,0.03,0.59,0.36,0.58,0.39
				c-0.41-0.33-0.48-0.37-0.18-0.13c0.09,0.07,0.17,0.15,0.25,0.22c0.3,0.28,0.57,0.58,0.84,0.88c0.42,0.46-0.16-0.15-0.15-0.2
				c-0.01,0.07,0.32,0.47,0.36,0.54c0.19,0.3,0.36,0.62,0.52,0.94c0.25,0.51-0.05,0.46-0.02-0.07c-0.01,0.19,0.18,0.51,0.24,0.7
				c0.11,0.37,0.21,0.74,0.28,1.11c0.19,1-0.04-0.73,0.04,0.27c0.03,0.37,0.03,0.73,0.02,1.1c-0.01,0.16-0.02,0.33-0.03,0.49
				c-0.03,0.63,0.21-0.94,0,0.01c-0.08,0.38-0.17,0.75-0.29,1.12c-0.25,0.73-0.19,0.04,0.03-0.02c-0.03,0.01-0.2,0.4-0.2,0.39
				c-0.1,0.19-0.23,0.37-0.33,0.56c-0.35,0.62,0.44-0.44,0.11-0.12c-0.17,0.17-0.94,0.78-0.98,0.98c0.06-0.27,0.6-0.41,0.2-0.16
				c-0.19,0.12-0.37,0.24-0.56,0.35c-0.2,0.11-0.4,0.21-0.6,0.31c-0.49,0.25,0.21-0.13,0.21-0.09c0.01,0.09-1.26,0.39-1.38,0.41
				c-0.16,0.04-0.33,0.06-0.49,0.1c-0.4,0.06-0.34,0.06,0.18-0.01c-0.18,0.02-0.35,0.04-0.53,0.05c-0.95,0.07-1.9,0.03-2.85-0.06
				c0.89,0.08-0.04-0.02-0.2-0.05c-0.27-0.06-0.54-0.13-0.81-0.21c-0.17-0.05-0.34-0.12-0.51-0.17c-0.37-0.14-0.33-0.12,0.12,0.06
				c-0.16-0.07-0.31-0.15-0.46-0.23c-0.21-0.11-0.96-0.43-1.06-0.66c0.11,0.09,0.22,0.17,0.33,0.26c-0.13-0.1-0.25-0.21-0.37-0.31
				c-0.15-0.13-0.29-0.27-0.43-0.42c-0.14-0.14-0.26-0.29-0.4-0.44c-0.55-0.59,0.4,0.66-0.01-0.03c-0.24-0.4-0.47-0.8-0.69-1.21
				c-0.38-0.7,0.23,0.76,0,0c-0.04-0.15-0.1-0.29-0.15-0.43c-0.12-0.4-0.17-0.82-0.29-1.22c-0.15-0.47,0.06,0.92,0.03,0.16
				c-0.01-0.23-0.03-0.45-0.03-0.68c0-0.19,0-0.37,0.01-0.56c0-0.11,0.01-0.22,0.02-0.34c0.04-0.39,0.03-0.31-0.04,0.26
				c0.06-0.02,0.31-1.17,0.37-1.35c0.24-0.77-0.39,0.68,0.01-0.02c0.12-0.21,0.22-0.42,0.34-0.63c0.06-0.1,0.29-0.58,0.4-0.61
				c-0.32,0.39-0.35,0.44-0.11,0.14c0.11-0.13,0.21-0.25,0.33-0.37c0.11-0.12,0.23-0.24,0.35-0.35c0.12-0.12,0.24-0.23,0.37-0.34
				c0.3-0.25,0.25-0.22-0.13,0.08c0.26-0.35,0.93-0.62,1.31-0.81c0.08-0.04,0.16-0.08,0.23-0.12c0.36-0.16,0.32-0.15-0.12,0.05
				c0.16-0.14,0.57-0.2,0.76-0.26c0.26-0.08,0.53-0.13,0.8-0.2c0.86-0.22-0.74,0.02,0.17-0.03
				C585.08,368.86,585.77,368.86,586.46,368.92c1.86,0.17,3.64-1.76,3.56-3.56c-0.09-2.07-1.57-3.38-3.56-3.56
				c-5.93-0.54-11.53,2.99-13.6,8.55c-1.76,4.75,0.04,10.63,3.96,13.75c4.47,3.56,11.49,4.1,16.48,1.24
				c4.59-2.63,6.2-7.92,5.29-12.91c-0.46-2.54-1.79-5-3.6-6.83c-2.32-2.35-5.32-3.44-8.53-3.81c-1.86-0.22-3.64,1.79-3.56,3.56
				C583,367.48,584.47,368.69,586.46,368.92z"/>
		</g>
	</g>
	<g>
		<g>
			<path d="M512.5,400.48c0.64,6.43,2.4,13.28,7.15,17.97c3.55,3.5,8.78,5.25,13.64,3.62c2.79-0.94,5.24-2.69,7.13-4.95
				c1.19-1.43,1.5-3.65,0-5.03c-1.32-1.21-3.76-1.52-5.03,0c-0.34,0.4-0.69,0.79-1.06,1.16c-0.17,0.17-0.89,1.03-1.11,0.99
				c0.01,0,0.67-0.47,0.23-0.18c-0.08,0.05-0.16,0.12-0.25,0.17c-0.19,0.13-0.39,0.26-0.59,0.38c-0.32,0.19-0.95,0.36-1.2,0.62
				c0.34-0.37,0.7-0.26,0.33-0.15c-0.09,0.03-0.17,0.06-0.26,0.09c-0.2,0.07-0.41,0.13-0.61,0.19c-0.2,0.06-0.41,0.11-0.62,0.15
				c-0.09,0.02-0.18,0.03-0.27,0.05c-0.58,0.13,0.76-0.05,0.32-0.04c-0.39,0.01-0.77,0.06-1.16,0.05c-0.21,0-0.41-0.02-0.62-0.04
				c-0.76-0.04,0.8,0.18,0.06,0c-0.38-0.09-0.76-0.17-1.14-0.29c-0.13-0.04-0.86-0.35-0.26-0.08c0.6,0.28-0.2-0.1-0.34-0.17
				c-0.4-0.21-0.79-0.44-1.16-0.69c-0.08-0.06-0.16-0.12-0.24-0.17c-0.45-0.28,0.32,0.13,0.24,0.19c-0.02,0.02-0.5-0.42-0.55-0.47
				c-0.37-0.33-0.72-0.69-1.06-1.06c-0.17-0.19-0.34-0.39-0.51-0.59c-0.17-0.21-0.05-0.26,0,0c0.16,0.21,0.18,0.24,0.07,0.08
				c-0.07-0.09-0.14-0.19-0.2-0.29c-0.67-0.96-1.25-1.99-1.74-3.05c-0.06-0.12-0.11-0.25-0.17-0.37c-0.19-0.38,0.22,0.6-0.01-0.04
				c-0.13-0.36-0.27-0.71-0.39-1.07c-0.24-0.71-0.46-1.43-0.65-2.15c-0.22-0.83-0.4-1.67-0.55-2.51c-0.04-0.22-0.08-0.44-0.11-0.66
				c-0.01-0.06-0.12-0.73-0.06-0.38c0.06,0.38-0.02-0.19-0.03-0.22c-0.04-0.36-0.08-0.71-0.12-1.07c-0.18-1.85-1.5-3.65-3.56-3.56
				C514.29,397,512.3,398.49,512.5,400.48L512.5,400.48z"/>
		</g>
	</g>
	<g>
		<g>
			<path d="M511.75,401.86C511.81,402.28,511.81,402.28,511.75,401.86c0.03,0.2,0.05,0.41,0.07,0.61c0.04,0.41,0.06,0.83,0.07,1.24
				c0.02,0.71-0.01,1.43-0.07,2.14c-0.03,0.31-0.11,0.89-0.01,0.25c-0.06,0.39-0.13,0.79-0.21,1.18c-0.14,0.67-0.32,1.34-0.53,1.99
				c-0.12,0.37-0.26,0.73-0.39,1.1c-0.29,0.77,0.25-0.46-0.1,0.21c-0.35,0.68-0.68,1.35-1.08,1.99c-0.15,0.24-0.3,0.47-0.46,0.7
				c-0.11,0.15-0.21,0.3-0.32,0.45c0.28-0.35,0.29-0.38,0.05-0.07c-0.42,0.48-0.83,0.95-1.29,1.39c-0.23,0.22-0.46,0.42-0.7,0.63
				c-0.68,0.61,0.36-0.2-0.22,0.18c-0.51,0.33-1.02,0.67-1.56,0.96c-0.18,0.1-1.25,0.52-0.33,0.18c-0.28,0.1-0.57,0.21-0.86,0.3
				c-0.29,0.09-0.58,0.17-0.88,0.24c-0.17,0.04-0.34,0.07-0.51,0.11c-0.4,0.07-0.34,0.06,0.17-0.01c-0.5,0.21-1.34,0.09-1.86,0.06
				c-0.11,0-1.16-0.13-0.62-0.04c0.55,0.09-0.53-0.11-0.63-0.14c-0.67-0.16-1.32-0.37-1.96-0.62c0.76,0.3-0.44-0.23-0.57-0.3
				c-0.39-0.2-0.77-0.43-1.14-0.66c-1.59-0.98-3.98-0.4-4.87,1.28c-0.92,1.74-0.42,3.82,1.28,4.87c5.03,3.1,11.07,3.64,16.37,0.87
				c4.86-2.54,8.25-7.56,9.65-12.77c0.9-3.37,0.94-6.79,0.39-10.21c-0.3-1.84-2.69-3.03-4.38-2.49
				C512.23,398.13,511.43,399.89,511.75,401.86L511.75,401.86z"/>
		</g>
	</g>
	<g>
		<g>
			<path d="M677.54,479.89c11.07,7.02,20.62,14.3,30.26,23.1c11.45,10.46,21.81,22.12,30.66,34.84
				c10.41,14.96,18.82,31.29,24.9,48.48c7.23,20.46,11.27,41.93,12.52,63.57c1.03,17.89,0.32,36.03-2.72,53.58
				c-2.73,15.76-7.28,31.47-13.75,45.95c-6.46,14.45-14.83,28.19-24.84,40.34c-10.42,12.64-22.57,23.85-35.96,33.28
				c-14.72,10.37-30.83,18.76-47.63,25.22c-19.16,7.37-39.17,12.41-59.42,15.66c-5.38,0.86-10.78,1.59-16.2,2.2
				c-1.91,0.22-3.56,1.48-3.56,3.56c0,1.76,1.64,3.78,3.56,3.56c21.74-2.46,43.3-6.64,64.13-13.39
				c18.12-5.87,35.7-13.62,51.94-23.59c14.78-9.07,28.49-20,40.37-32.63c11.26-11.97,20.93-25.47,28.59-40.01
				c7.7-14.63,13.45-30.28,17.21-46.37c3.9-16.67,5.75-33.84,5.82-50.95c0.1-22.75-2.62-45.64-8.71-67.58
				c-5.2-18.76-12.92-36.88-23.01-53.54c-8.71-14.38-19.18-27.72-31-39.66c-9.91-10-20.8-19.04-32.39-27.03
				c-2.36-1.63-4.76-3.21-7.18-4.75C677.26,471.29,673.68,477.44,677.54,479.89L677.54,479.89z"/>
		</g>
	</g>
	<g>
		<g>
			<path d="M653.74,431.1c23.44,8.67,46.19,19.52,66.89,33.73c2.2,1.51,4.37,3.05,6.52,4.63c0.96,0.71,1.92,1.42,2.87,2.14
				c0.51,0.39,1.03,0.78,1.54,1.17c0.84,0.65-0.54-0.42,0.29,0.23c0.25,0.2,0.5,0.39,0.75,0.59c3.84,3.01,7.59,6.12,11.25,9.34
				c6.91,6.06,13.65,12.39,19.99,19.05c3.22,3.38,6.28,6.92,9.23,10.54c0.78,0.96,1.55,1.93,2.32,2.9c0.37,0.47,0.74,0.95,1.11,1.42
				c-0.45-0.58,0.22,0.29,0.25,0.33c0.27,0.35,0.54,0.71,0.81,1.06c1.58,2.09,3.13,4.2,4.65,6.33c6.49,9.11,12.45,18.61,17.75,28.46
				c2.6,4.83,5.04,9.75,7.25,14.77c0.27,0.62,0.54,1.24,0.81,1.87c0.44,1.02-0.26-0.63,0.16,0.39c0.09,0.21,0.17,0.41,0.26,0.62
				c0.55,1.32,1.08,2.66,1.58,3.99c0.87,2.28,1.68,4.59,2.42,6.92c1.38,4.35,2.51,8.79,3.19,13.31c0.04,0.27,0.08,0.53,0.11,0.8
				c-0.14-0.97-0.01-0.07,0.01,0.11c0.05,0.43,0.1,0.87,0.14,1.3c0.1,1.1,0.18,2.2,0.21,3.3c0.05,1.83-0.02,3.65-0.2,5.47
				c-0.01,0.14-0.12,0.91-0.01,0.12c-0.06,0.39-0.11,0.78-0.18,1.16c-0.1,0.63-0.22,1.26-0.34,1.88c-0.31,1.54-0.68,3.07-1.14,4.57
				c-0.36,1.19-0.79,2.35-1.23,3.51c-0.39,1,0.29-0.62-0.15,0.35c-0.09,0.19-0.17,0.39-0.26,0.58c-0.31,0.66-0.63,1.32-0.98,1.97
				c-0.52,0.97-1.09,1.93-1.7,2.85c-0.32,0.49-0.67,0.96-1,1.43c-0.56,0.78,0.46-0.55-0.14,0.19c-0.21,0.26-0.41,0.51-0.63,0.76
				c-1.38,1.63-2.93,3.09-4.59,4.43c0.71-0.57,0.01-0.01-0.12,0.08c-0.21,0.16-0.42,0.31-0.64,0.46c-0.36,0.25-0.72,0.49-1.08,0.72
				c-0.9,0.58-1.83,1.11-2.78,1.6c-0.41,0.21-0.83,0.42-1.25,0.61c-0.23,0.11-0.46,0.21-0.69,0.31c-0.79,0.36,0.73-0.28-0.08,0.03
				c-0.93,0.36-1.86,0.71-2.82,1.01c-1.79,0.56-3.61,0.99-5.46,1.29c-0.24,0.04-0.47,0.07-0.71,0.11c-0.83,0.15,0.84-0.09,0,0
				c-0.47,0.05-0.94,0.11-1.41,0.15c-0.92,0.09-1.85,0.14-2.78,0.17c-1.7,0.05-3.4,0-5.1-0.15c-1.92-0.16-3.56,1.75-3.56,3.56
				c0,2.06,1.64,3.4,3.56,3.56c8.12,0.69,16.49-0.75,23.77-4.45c8.88-4.51,15.11-12.59,18.27-21.93c3.16-9.36,3.03-18.92,0.96-28.48
				c-2.22-10.22-6.23-20.06-10.73-29.47c-9.58-20.06-22.08-39.09-36.6-55.92c-6.07-7.04-12.77-13.52-19.6-19.82
				c-7.47-6.89-15.28-13.4-23.45-19.44c-19.96-14.75-42.07-26.17-65.06-35.4c-3.5-1.41-7.03-2.76-10.57-4.07
				c-1.8-0.67-3.9,0.75-4.38,2.49C650.7,428.71,651.93,430.43,653.74,431.1L653.74,431.1z"/>
		</g>
	</g>
	<g>
		<g>
			<path d="M328.97,514.35c-10.25,11.71-19.05,24.7-25.94,38.66c-6.07,12.31-10.86,25.41-13.31,38.94
				c-2.61,14.45-1.78,29.22-2.65,43.82c-0.24,4.02-0.56,8.04-1.01,12.05c-0.11,0.97-0.22,1.95-0.34,2.92
				c-0.03,0.27-0.25,1.9-0.11,0.84c-0.08,0.6-0.16,1.19-0.25,1.78c-0.3,2.04-0.63,4.08-1.01,6.12c-0.77,4.14-1.71,8.24-2.9,12.28
				c-0.57,1.95-1.2,3.88-1.9,5.8c-0.34,0.95-0.7,1.89-1.08,2.82c-0.09,0.23-0.62,1.48-0.22,0.54c-0.23,0.53-0.46,1.07-0.7,1.6
				c-1.64,3.64-3.58,7.15-5.87,10.42c-0.28,0.39-0.56,0.78-0.84,1.17c-0.12,0.16-0.24,0.32-0.36,0.48
				c-0.31,0.42,0.55-0.68,0.04-0.06c-0.65,0.81-1.3,1.61-1.99,2.39c-1.27,1.43-2.63,2.78-4.06,4.04c-0.36,0.32-0.73,0.63-1.1,0.93
				c-0.2,0.17-1.43,1.11-0.6,0.49c-0.84,0.63-1.69,1.24-2.57,1.82c-1.66,1.08-3.39,2.05-5.18,2.9c-0.46,0.22-0.92,0.42-1.39,0.63
				c0.92-0.41-0.57,0.23-0.82,0.32c-0.98,0.38-1.97,0.72-2.97,1.03c-2.1,0.65-4.25,1.16-6.42,1.53c-0.57,0.1-1.14,0.18-1.71,0.27
				c0.91-0.13-0.07,0.01-0.21,0.02c-0.29,0.04-0.59,0.07-0.88,0.1c-1.31,0.14-2.63,0.23-3.95,0.29c-2.49,0.1-4.99,0.08-7.47-0.09
				c-0.49-0.04-0.98-0.08-1.48-0.13c-0.24-0.03-0.48-0.06-0.73-0.08c-0.85-0.08,0.83,0.14-0.01,0c-0.93-0.16-1.86-0.3-2.79-0.51
				c-1.84-0.4-3.66-0.94-5.42-1.62c-0.25-0.1-1.4-0.6-0.37-0.14c-0.4-0.18-0.8-0.35-1.2-0.54c-0.85-0.4-1.68-0.84-2.49-1.31
				c-0.71-0.41-1.41-0.85-2.09-1.31c-0.33-0.22-0.65-0.45-0.96-0.68c-0.17-0.13-0.34-0.26-0.52-0.38c-0.5-0.36,0.64,0.53-0.13-0.1
				c-1.33-1.1-2.61-2.26-3.8-3.51c-0.6-0.64-1.18-1.29-1.74-1.96c-0.28-0.34-0.56-0.69-0.83-1.03c0.69,0.87-0.34-0.46-0.51-0.71
				c-2.17-3.01-3.97-6.28-5.48-9.67c-0.1-0.22-0.19-0.44-0.29-0.66c-0.35-0.77,0.3,0.74-0.02-0.04c-0.18-0.45-0.37-0.91-0.55-1.36
				c-0.39-1-0.76-2.02-1.11-3.04c-0.66-1.94-1.25-3.91-1.78-5.89c-1.11-4.19-1.93-8.46-2.54-12.75c-0.04-0.28-0.08-0.56-0.12-0.83
				c0.13,0.94,0-0.01-0.02-0.17c-0.07-0.56-0.14-1.13-0.2-1.69c-0.14-1.23-0.27-2.47-0.38-3.71c-0.21-2.33-0.36-4.66-0.47-7
				c-0.45-9.86-0.08-19.74,0.84-29.56c0.23-2.48,0.5-4.95,0.8-7.42c0.08-0.62,0.15-1.23,0.23-1.85c0.04-0.31,0.08-0.62,0.12-0.92
				c-0.12,0.86,0.02-0.17,0.04-0.28c0.18-1.33,0.38-2.66,0.58-3.99c0.74-4.84,1.61-9.66,2.61-14.45c1.89-9.06,4.22-18.04,7.11-26.83
				c1.29-3.93,2.71-7.83,4.27-11.66c0.18-0.44,0.36-0.88,0.55-1.31c-0.42,1.01,0.14-0.31,0.24-0.54c0.38-0.87,0.76-1.73,1.16-2.59
				c1.08-2.35,2.25-4.67,3.46-6.96c5.79-10.89,13.07-21.44,20.54-30.8c8.2-10.27,17.14-19.95,26.67-28.99
				c4.58-4.34,9.3-8.54,14.17-12.55c4.68-3.86,8.91-7.09,14.03-10.63c4.41-3.05,8.96-5.92,13.67-8.49c2.22-1.21,4.47-2.35,6.76-3.4
				c0.44-0.2,0.88-0.4,1.32-0.59c0.26-0.11,0.52-0.23,0.78-0.34c-0.82,0.35,0.05-0.02,0.19-0.07c1.09-0.45,2.19-0.87,3.3-1.26
				c1.83-0.65,3.68-1.22,5.57-1.67c0.91-0.22,1.83-0.41,2.75-0.57c0.28-0.05,1.81-0.25,0.61-0.11c0.43-0.05,0.87-0.1,1.3-0.14
				c1.91-0.18,3.56-1.51,3.56-3.56c0-1.78-1.63-3.74-3.56-3.56c-9.18,0.87-17.86,4.63-25.89,8.98c-10.38,5.63-20,12.65-29.12,20.14
				c-20.36,16.72-38.69,36.51-53.37,58.42c-6.04,9.01-11.32,18.47-15.44,28.5c-3.33,8.09-5.98,16.46-8.22,24.92
				c-5.17,19.53-8.29,39.8-8.85,60.01c-0.51,18.44,0.96,37.85,8.55,54.9c3.09,6.93,7.51,13.54,13.47,18.33
				c6.4,5.15,13.94,8.02,22.1,8.8c9.74,0.94,19.89-0.38,28.89-4.24c7.86-3.37,14.42-8.92,19.57-15.7
				c10.33-13.6,14.25-31.15,16.31-47.77c1.78-14.34,1.66-28.74,2.25-43.15c0.05-1.21,0.11-2.42,0.2-3.62
				c0.09-1.25,0.21-2.5,0.35-3.75c0.19-1.7,0.29-2.37,0.59-4.24c1.08-6.59,2.74-13.08,4.82-19.41c4.53-13.76,11.11-26.8,19.17-38.94
				c4.18-6.3,8.77-12.3,13.75-17.99c1.27-1.45,1.42-3.61,0-5.03C332.71,513.06,330.24,512.9,328.97,514.35L328.97,514.35z"/>
		</g>
	</g>
	<g>
		<g>
			<path d="M420.85,743.06c28.19,2.84,56.23,7.68,83.94,13.52c12.71,2.68,25.39,5.6,37.91,9.08c5.1,1.41,10.17,2.92,15.18,4.63
				c1.95,0.67,3.89,1.37,5.81,2.12c0.45,0.18,0.91,0.36,1.36,0.55c0.97,0.39-0.24-0.12,0.68,0.29c0.77,0.34,1.55,0.69,2.31,1.06
				c10.24,4.98,18.02,14.26,22.04,24.87c5.21,13.72,4.71,29.27-0.35,42.97c-8.85,23.97-35.16,38.68-59.78,40.09
				c-4.43,0.25-8.83,0.02-13.23-0.48c-1.53-0.17-3.06-0.37-4.58-0.57c-0.54-0.07,0.6,0.08-0.32-0.04c-0.44-0.06-0.87-0.12-1.31-0.18
				c-0.92-0.13-1.83-0.26-2.75-0.39c-8.92-1.3-17.81-2.79-26.69-4.32c-21.64-3.73-43.22-7.77-64.78-11.92
				c-16.52-3.18-33.03-6.38-49.5-9.82c-4.94-1.03-9.7-2.33-14.56-3.71c-15.08-4.28-29.86-9.7-43.91-16.66
				c-22.52-11.17-43.55-26.5-58.9-46.43c-13.18-17.12-21.7-36.86-24.78-58.25c-0.25-1.77-0.57-4.58-0.75-6.87
				c-0.2-2.48-0.33-4.97-0.39-7.45c-0.11-4.57-7.23-4.59-7.12,0c0.53,21.92,6.56,43.46,17.63,62.4
				c12.67,21.67,31.36,39.24,52.49,52.56c12.74,8.02,26.4,14.52,40.46,19.86c7.87,2.99,15.88,5.6,23.99,7.89
				c2.89,0.81,5.76,1.75,8.69,2.41c13.75,3.09,27.63,5.67,41.47,8.37c22.04,4.3,44.11,8.48,66.21,12.41
				c17.05,3.04,34.21,6.34,51.45,8.06c25.57,2.56,53.2-8.57,68.95-29.05c17.79-23.13,17.96-59.5-2.13-81.33
				c-6.95-7.55-15.67-11.75-25.19-15.05c-10.87-3.77-22.05-6.65-33.23-9.33c-28.65-6.87-57.73-12.17-86.93-16.08
				c-6.46-0.86-12.93-1.64-19.42-2.3c-1.91-0.19-3.56,1.77-3.56,3.56C417.29,741.59,418.93,742.87,420.85,743.06L420.85,743.06z"/>
		</g>
	</g>
	<g>
		<g>
			<path d="M768.89,740.38c7.37,2.16,14.89,3.77,22.28,5.87c1.62,0.46,3.23,0.95,4.82,1.5c0.72,0.25,1.44,0.51,2.16,0.78
				c0.35,0.14,0.71,0.27,1.06,0.42c0.15,0.06,0.3,0.12,0.45,0.18c0.37,0.15-0.41-0.19,0.19,0.08c2.96,1.34,5.79,2.88,8.42,4.78
				c0.33,0.24,0.65,0.47,0.97,0.72c-0.41-0.32,0.4,0.33,0.52,0.42c0.51,0.42,1.01,0.85,1.49,1.29c0.87,0.81,1.7,1.68,2.47,2.59
				c0.19,0.23,0.38,0.45,0.57,0.69c0.11,0.13,0.21,0.27,0.32,0.4c-0.01-0.01-0.39-0.53-0.16-0.21c0.38,0.54,0.78,1.06,1.15,1.61
				c0.77,1.14,1.48,2.32,2.14,3.53c0.67,1.24,1.28,2.51,1.85,3.8c0.35,0.8-0.06-0.18,0.17,0.41c0.13,0.33,0.27,0.67,0.4,1
				c0.28,0.73,0.55,1.47,0.81,2.22c1.08,3.15,1.92,6.37,2.57,9.63c0.77,3.86,1.13,6.6,1.44,10.47c0.33,4.04,0.44,8.09,0.38,12.15
				c-0.03,2.25-0.12,4.5-0.26,6.75c-0.06,0.99-0.12,1.98-0.21,2.97c-0.04,0.43-0.09,0.86-0.14,1.3c-0.02,0.18-0.04,0.37-0.07,0.55
				c0.07-0.5-0.03,0.14-0.06,0.33c-0.54,3.46-1.44,6.86-2.7,10.13c-0.12,0.32-0.25,0.64-0.38,0.97c-0.26,0.66-0.1,0.25-0.04,0.1
				c-0.09,0.21-0.18,0.42-0.28,0.63c-0.35,0.78-0.72,1.55-1.11,2.31c-0.74,1.45-1.56,2.87-2.44,4.25c-0.42,0.66-0.86,1.3-1.31,1.94
				c-0.22,0.32-0.45,0.63-0.68,0.94c-0.13,0.18-0.26,0.36-0.4,0.53c-0.37,0.48,0.51-0.62-0.16,0.2c-1.01,1.23-2.04,2.44-3.14,3.6
				c-1.09,1.14-2.23,2.23-3.41,3.27c-0.57,0.5-1.14,0.99-1.73,1.46c-0.17,0.14-0.34,0.27-0.5,0.4c-0.03,0.02-0.45,0.35-0.15,0.12
				c0.33-0.25-0.21,0.15-0.28,0.21c-0.17,0.13-0.34,0.26-0.52,0.38c-2.51,1.83-5.18,3.46-7.96,4.84c-0.65,0.32-1.3,0.63-1.96,0.93
				c-0.18,0.08-1,0.44-0.71,0.31c0.41-0.17-0.19,0.08-0.28,0.11c-0.19,0.08-0.38,0.15-0.57,0.23c-1.41,0.55-2.84,1.04-4.3,1.47
				c-1.37,0.4-2.76,0.74-4.17,1.02c-0.67,0.13-1.33,0.25-2.01,0.35c-0.19,0.03-0.38,0.06-0.57,0.08c0.03,0,0.65-0.06,0.23-0.03
				c-0.38,0.03-0.76,0.09-1.14,0.12c-2.38,0.23-4.77,0.23-7.16,0.23c-7.41,0.01-14.83-0.2-22.24-0.41
				c-10.13-0.29-20.26-0.66-30.39-1.05c-10.81-0.42-21.61-0.87-32.42-1.36c-9.27-0.41-18.54-0.85-27.81-1.31
				c-5.69-0.29-11.38-0.56-17.06-0.94c-0.59-0.04-1.18-0.08-1.78-0.13c-1.92-0.17-3.56,1.76-3.56,3.56c0,2.06,1.64,3.39,3.56,3.56
				c4.59,0.4,9.21,0.57,13.81,0.81c8.85,0.46,17.71,0.88,26.57,1.28c10.81,0.49,21.62,0.96,32.44,1.39
				c10.62,0.43,21.24,0.82,31.86,1.15c8.14,0.25,16.27,0.49,24.41,0.55c2.43,0.02,4.86,0.03,7.28-0.06
				c5.27-0.2,10.52-1.27,15.47-3.1c12.6-4.67,23.6-13.65,30.27-25.38c3.67-6.46,5.87-13.56,6.69-20.92
				c0.93-8.29,0.82-16.86-0.03-25.15c-1.33-12.92-4.68-26.62-13.46-36.61c-9.12-10.38-22.97-13.7-35.8-16.91
				c-3.97-0.99-7.92-2.02-11.85-3.17c-1.84-0.54-3.87,0.65-4.38,2.49C765.89,737.89,767.04,739.84,768.89,740.38L768.89,740.38z"/>
		</g>
	</g>
	<g>
		<g>
			<path d="M790.23,761.97c-4,2.07-7.07,5.71-9.43,9.47c-2.84,4.52-4.83,9.63-6.28,14.74c-3.36,11.82-4.08,24.64-1.76,36.72
				c1.25,6.49,3.58,12.93,7.32,18.42c1.08,1.59,3.13,2.29,4.87,1.28c1.57-0.92,2.36-3.27,1.28-4.87c-0.75-1.11-1.45-2.25-2.09-3.42
				c-0.31-0.57-0.61-1.15-0.89-1.74c-0.13-0.27-0.26-0.55-0.38-0.82c-0.08-0.18-0.53-1.24-0.25-0.55c-1.04-2.54-1.87-5.17-2.5-7.85
				c-0.33-1.4-0.6-2.81-0.83-4.22c-0.05-0.32-0.1-0.64-0.15-0.95c-0.11-0.7,0.04,0.37-0.05-0.33c-0.09-0.75-0.18-1.5-0.25-2.25
				c-0.27-2.93-0.36-5.87-0.29-8.81c0.04-1.41,0.11-2.83,0.22-4.24c0.05-0.7,0.12-1.4,0.19-2.1c0.04-0.38,0.08-0.75,0.12-1.13
				c0.02-0.16,0.04-0.32,0.06-0.48c0.01-0.07,0.1-0.74,0.04-0.33c-0.05,0.35,0.1-0.67,0.12-0.8c0.05-0.32,0.1-0.63,0.15-0.95
				c0.12-0.73,0.25-1.46,0.39-2.19c0.26-1.38,0.56-2.76,0.9-4.12c0.64-2.56,1.4-5.09,2.33-7.56c0.22-0.58,0.46-1.14,0.68-1.72
				c0.14-0.38-0.07,0.17-0.09,0.2c0.06-0.13,0.11-0.26,0.17-0.38c0.15-0.34,0.3-0.67,0.45-1c0.48-1.05,1-2.08,1.56-3.09
				c0.61-1.09,1.26-2.16,1.97-3.19c0.18-0.26,0.37-0.52,0.55-0.78c0.47-0.66-0.29,0.33,0.08-0.11c0.36-0.43,0.72-0.87,1.1-1.29
				c0.72-0.79,1.49-1.51,2.3-2.2c0.61-0.51-0.59,0.39,0.08-0.05c0.19-0.13,0.37-0.26,0.57-0.39c0.43-0.28,0.87-0.53,1.32-0.77
				c1.71-0.88,2.21-3.27,1.28-4.87C794.09,761.52,791.94,761.09,790.23,761.97L790.23,761.97z"/>
		</g>
	</g>
	<g>
		<g>
			<path d="M535.89,781.1c-12.95,5.9-21.48,18.24-25.85,31.44c-4.21,12.72-5.1,27.09-1.87,40.14c1.53,6.17,4.15,12.24,8.47,16.97
				c1.3,1.42,3.72,1.32,5.03,0c1.41-1.41,1.3-3.61,0-5.03c-0.37-0.41-0.7-0.88-1.08-1.27c-0.31-0.31,0.45,0.61,0.19,0.25
				c-0.1-0.14-0.2-0.27-0.3-0.4c-0.18-0.25-0.35-0.5-0.53-0.75c-0.69-1.02-1.31-2.08-1.87-3.18c-0.27-0.52-0.52-1.05-0.76-1.58
				c-0.06-0.14-0.12-0.27-0.18-0.41c-0.32-0.7,0.23,0.6,0.05,0.13c-0.12-0.32-0.26-0.63-0.38-0.95c-0.49-1.28-0.92-2.58-1.3-3.9
				c-0.39-1.38-0.73-2.78-1.01-4.18c-0.13-0.66-0.25-1.33-0.36-1.99c-0.06-0.38-0.12-0.76-0.18-1.14c-0.02-0.13-0.1-0.69-0.03-0.17
				c0.08,0.57-0.02-0.18-0.04-0.3c-0.38-3.1-0.53-6.23-0.49-9.35c0.02-1.57,0.09-3.13,0.21-4.69c0.06-0.84,0.14-1.67,0.23-2.5
				c0.04-0.37,0.09-0.74,0.13-1.11c0.02-0.17,0.1-0.7-0.02,0.11c0.04-0.28,0.08-0.56,0.12-0.84c0.48-3.21,1.16-6.4,2.07-9.52
				c0.46-1.58,0.97-3.15,1.55-4.69c0.26-0.7,0.54-1.4,0.82-2.1c0.25-0.61,0.02-0.04-0.03,0.07c0.07-0.17,0.15-0.34,0.22-0.51
				c0.19-0.43,0.38-0.85,0.58-1.28c1.37-2.93,2.99-5.75,4.86-8.39c0.24-0.34,0.48-0.67,0.73-1c0.12-0.16,0.52-0.66,0.03-0.04
				c0.14-0.18,0.28-0.36,0.43-0.54c0.54-0.67,1.1-1.33,1.69-1.98c1.19-1.32,2.46-2.56,3.8-3.72c0.34-0.3,0.7-0.59,1.05-0.87
				c0.09-0.07,0.55-0.44,0.18-0.14c-0.4,0.31,0.32-0.24,0.4-0.3c0.7-0.52,1.42-1.01,2.15-1.48c1.56-1,3.2-1.88,4.89-2.65
				c1.75-0.8,2.18-3.33,1.28-4.87C539.7,780.58,537.64,780.3,535.89,781.1L535.89,781.1z"/>
		</g>
	</g>
	<g>
		<g>
			<path d="M555.27,543.14c8.02,1.33,15.88,3.65,23.59,6.22c4.5,1.5,8.96,3.12,13.37,4.84c2.32,0.9,4.63,1.84,6.93,2.8
				c0.07,0.03,1.06,0.44,0.35,0.15c0.2,0.08,0.4,0.17,0.6,0.25c0.6,0.25,1.2,0.51,1.79,0.77c1.19,0.52,2.38,1.04,3.56,1.57
				c8.29,3.72,16.46,7.78,24.21,12.52c1.7,1.04,3.38,2.12,5.03,3.25c0.73,0.5,1.46,1.01,2.18,1.54c0.31,0.23,0.63,0.46,0.94,0.69
				c0.18,0.14,0.36,0.28,0.54,0.41c-0.85-0.65-0.01-0.01,0.16,0.13c1.18,0.94,2.33,1.92,3.42,2.96c0.49,0.47,0.96,0.94,1.42,1.44
				c0.38,0.41,1.1,1.01,1.31,1.53c-0.28-0.71-0.42-0.58-0.18-0.22c0.06,0.08,0.12,0.17,0.18,0.25c0.17,0.24,0.33,0.49,0.49,0.74
				c0.27,0.44,0.44,1.05,0.76,1.44c-0.32-0.39-0.29-0.84-0.09-0.15c0.06,0.21,0.13,0.41,0.18,0.63c0.13,0.54-0.11,0.82,0.01-0.22
				c-0.02,0.19,0.04,0.42,0.04,0.61c0,0.21-0.01,0.42-0.02,0.63c-0.02,0.8,0.15-0.66,0.05-0.3c-0.13,0.45-0.19,0.9-0.33,1.34
				c-0.06,0.2-0.14,0.38-0.21,0.58c-0.24,0.73,0.45-0.92,0-0.02c-0.25,0.5-0.5,0.99-0.78,1.47c-0.25,0.43-0.52,0.85-0.81,1.27
				c-0.18,0.26-0.36,0.52-0.55,0.78c-0.1,0.13-0.2,0.26-0.29,0.39c-0.35,0.49,0.56-0.69,0.15-0.19c-0.89,1.07-1.79,2.13-2.75,3.13
				c-2.22,2.32-4.62,4.45-7.09,6.49c-0.67,0.55-1.35,1.1-2.03,1.64c-0.19,0.15-0.38,0.3-0.57,0.45c-0.05,0.04-0.68,0.53-0.22,0.17
				c0.47-0.36-0.18,0.14-0.23,0.17c-0.26,0.2-0.53,0.4-0.79,0.6c-1.54,1.16-3.1,2.29-4.68,3.4c-3.39,2.38-6.85,4.65-10.36,6.84
				c-7.2,4.5-14.6,8.67-22.14,12.55c-3.65,1.87-7.33,3.68-11.06,5.39c-1.66,0.76-3.32,1.5-4.99,2.22c-0.24,0.1-1.69,0.71-0.68,0.29
				c-0.36,0.15-0.72,0.3-1.08,0.45c-0.84,0.35-1.68,0.68-2.52,1.02c-2.78,1.09-5.59,2.12-8.45,2.97c-1.19,0.35-2.38,0.68-3.59,0.95
				c-0.5,0.11-1.01,0.22-1.51,0.3c-0.21,0.04-0.43,0.07-0.64,0.11c-0.73,0.12,1.08-0.1-0.02,0c-1.92,0.16-3.82,0.04-5.73-0.19
				c-0.15-0.02-0.31-0.04-0.46-0.06c-0.63-0.07,0.84,0.13,0.39,0.05c-0.3-0.05-0.6-0.09-0.9-0.13c-0.69-0.11-1.38-0.22-2.06-0.35
				c-1.39-0.25-2.77-0.54-4.14-0.84c-7.04-1.57-13.97-3.64-20.82-5.89c-7.94-2.61-15.8-5.5-23.54-8.64c-0.9-0.37-1.8-0.73-2.7-1.11
				c-0.47-0.19-0.93-0.39-1.4-0.59c0.84,0.35-0.02-0.01-0.16-0.07c-0.25-0.11-0.5-0.21-0.76-0.32c-1.91-0.82-3.81-1.65-5.7-2.5
				c-3.5-1.58-6.96-3.22-10.38-4.97c-3.06-1.56-6.08-3.2-9.03-4.97c-1.27-0.76-2.52-1.55-3.75-2.38c-0.55-0.37-1.1-0.75-1.64-1.14
				c-0.26-0.18-0.51-0.37-0.77-0.56c-0.11-0.08-0.22-0.17-0.34-0.25c-0.72-0.54,0.53,0.43,0.07,0.06c-0.86-0.71-1.73-1.41-2.53-2.19
				c-0.33-0.32-0.64-0.64-0.95-0.98c-0.16-0.18-0.31-0.36-0.47-0.55c-0.61-0.71,0.46,0.7,0.07,0.1c-0.21-0.32-0.43-0.62-0.61-0.95
				c-0.08-0.15-0.15-0.31-0.23-0.46c-0.22-0.38,0.31,1.08,0.12,0.24c-0.03-0.12-0.06-0.28-0.11-0.4c-0.26-0.7-0.01,0.98,0.04,0.4
				c0.01-0.11,0-0.27-0.01-0.38c-0.09-0.72-0.26,1.05-0.05,0.34c0.1-0.34,0.2-0.68,0.3-1.01c0.21-0.68-0.48,0.95-0.05,0.12
				c0.11-0.22,0.22-0.44,0.34-0.66c0.48-0.88,1.09-2.12,1.85-2.78c-0.84,0.73-0.17,0.23,0.07-0.07c0.22-0.27,0.45-0.54,0.68-0.81
				c0.45-0.52,0.91-1.04,1.38-1.55c1.1-1.19,2.24-2.33,3.41-3.45c2.71-2.59,5.56-5.04,8.46-7.42c0.78-0.64,1.57-1.28,2.37-1.91
				c0.44-0.35,0.89-0.7,1.33-1.05c0.19-0.15,0.38-0.29,0.56-0.44c0.72-0.56-0.26,0.19,0.3-0.24c1.8-1.38,3.62-2.75,5.45-4.09
				c7.51-5.49,15.25-10.66,23.19-15.51c7.22-4.41,14.61-8.62,22.3-12.17c0.78-0.36,1.56-0.71,2.35-1.06
				c0.23-0.1,1.42-0.59,0.39-0.17c0.4-0.16,0.8-0.33,1.2-0.49c1.35-0.54,2.71-1.05,4.1-1.5c1.83-0.6,3.01-2.46,2.48-4.38
				c-0.49-1.79-2.54-3.09-4.38-2.49c-7.23,2.37-14.11,5.9-20.77,9.56c-8.26,4.54-16.29,9.53-24.1,14.8
				c-7.79,5.25-15.4,10.8-22.64,16.78c-5.3,4.39-10.62,9.03-14.7,14.62c-1.24,1.7-2.41,3.66-2.78,5.77
				c-0.38,2.21,0.22,4.36,1.49,6.2c3.04,4.4,7.86,7.5,12.35,10.24c6.33,3.87,13.03,7.14,19.79,10.2c7.99,3.62,16.13,6.91,24.37,9.94
				c7.56,2.78,15.21,5.34,22.97,7.53c6.2,1.75,12.5,3.32,18.91,4.07c4.62,0.54,8.97-0.16,13.4-1.49c6.77-2.04,13.32-4.87,19.72-7.83
				c15.42-7.12,30.44-15.53,44.26-25.4c5.88-4.2,11.76-8.68,16.66-14.03c3.24-3.54,7.12-8.35,6.84-13.48
				c-0.32-5.77-5.23-10.31-9.45-13.69c-6.56-5.25-13.87-9.5-21.31-13.36c-8.98-4.66-18.27-8.76-27.69-12.45
				c-8.74-3.43-17.65-6.51-26.74-8.91c-3.57-0.94-7.18-1.77-10.83-2.38c-1.89-0.31-3.83,0.5-4.38,2.49
				C552.32,540.46,553.37,542.82,555.27,543.14L555.27,543.14z"/>
		</g>
	</g>
	<g>
		<g>
			<path d="M646.14,587.6c2.7,8.2,4.32,16.76,5.71,25.27c0.41,2.49,0.78,4.99,1.13,7.49c0.04,0.32,0.09,0.64,0.13,0.95
				c0.01,0.1,0.16,1.16,0.05,0.33c0.07,0.53,0.14,1.07,0.21,1.6c0.18,1.4,0.35,2.8,0.52,4.2c0.61,5.17,1.13,10.35,1.54,15.53
				c0.74,9.18,1.23,18.41,1.1,27.63c-0.05,3.45-0.18,6.91-0.57,10.35c-0.04,0.33-0.29,1.6-0.03,0.27c-0.05,0.27-0.08,0.55-0.12,0.82
				c-0.1,0.64-0.22,1.28-0.36,1.92c-0.1,0.46-0.22,0.92-0.35,1.37c-0.07,0.22-0.14,0.43-0.21,0.65c-0.31,0.96,0.35-0.62,0.05-0.1
				c-0.36,0.62-0.72,1.21-1.14,1.8c-0.14,0.21,0.68-0.84,0.15-0.2c-0.15,0.18-0.3,0.37-0.46,0.55c-0.34,0.4-0.69,0.79-1.05,1.18
				c-1.85,2-3.85,3.86-5.88,5.67c-2.64,2.36-5.35,4.63-8.1,6.85c-1.55,1.26-3.11,2.5-4.69,3.72c-0.41,0.32-0.82,0.64-1.22,0.95
				c0.76-0.59-0.37,0.29-0.52,0.4c-0.92,0.7-1.83,1.4-2.75,2.1c-13.43,10.13-27.37,19.88-42.13,27.99c-2.74,1.5-5.51,2.94-8.37,4.19
				c-0.15,0.07-0.31,0.12-0.46,0.2c0.92-0.47,0.64-0.26,0.4-0.17c-0.29,0.12-0.58,0.24-0.88,0.36c-0.59,0.23-1.18,0.45-1.77,0.65
				c-0.9,0.3-1.81,0.54-2.74,0.74c-0.49,0.11-0.84-0.12,0.3-0.03c-0.17-0.01-0.37,0.04-0.55,0.05c-0.32,0.02-0.63,0.01-0.95-0.02
				c-0.16-0.01-0.31-0.04-0.47-0.05c-0.22-0.01,1.19,0.19,0.34,0.04c-0.4-0.07-0.8-0.14-1.19-0.21c-2.18-0.44-4.34-1.03-6.48-1.65
				c-14.54-4.23-28.75-9.77-42.78-15.44c-2.04-0.82-4.07-1.66-6.11-2.5c-0.97-0.4-1.94-0.8-2.9-1.21c-0.21-0.09-0.42-0.18-0.63-0.26
				c-0.86-0.36,0.7,0.3-0.15-0.06c-0.58-0.25-1.16-0.49-1.74-0.74c-3.85-1.64-7.69-3.32-11.51-5.06
				c-6.32-2.87-12.61-5.84-18.67-9.23c-2.12-1.19-4.23-2.43-6.21-3.84c-0.2-0.14-0.39-0.29-0.58-0.43c-0.61-0.44,0.8,0.66,0.1,0.08
				c-0.31-0.25-0.62-0.51-0.91-0.78c-0.23-0.21-0.44-0.44-0.65-0.66c-0.37-0.38-0.11-0.58,0.23,0.33c-0.05-0.13-0.19-0.24-0.25-0.37
				c-0.39-0.76,0.34,1.06,0.08,0.22c-0.1-0.31-0.21-0.62-0.3-0.93c-0.23-0.8-0.42-1.6-0.6-2.41c-0.51-2.32-0.93-4.67-1.32-7.02
				c-0.54-3.22-1.03-6.46-1.5-9.69c-0.27-1.86-0.53-3.71-0.79-5.57c-0.07-0.48-0.13-0.97-0.2-1.45c-0.04-0.27-0.25-1.87-0.11-0.78
				c-0.13-1-0.27-2.01-0.4-3.01c-1.11-8.43-2.13-16.88-3.09-25.33c-1.5-13.16-3.13-26.37-3.9-39.6c-0.06-1.05-0.18-2.14-0.07-3.19
				c0.19-1.91-1.77-3.56-3.56-3.56c-2.08,0-3.36,1.64-3.56,3.56c-0.12,1.15,0.02,2.36,0.09,3.51c0.14,2.29,0.33,4.57,0.53,6.86
				c0.61,7.04,1.34,14.08,2.1,21.1c1.81,16.85,3.79,33.69,6.25,50.45c0.8,5.48,1.58,11,2.84,16.4c0.34,1.45,0.7,3.03,1.52,4.29
				c1.14,1.73,2.88,3.01,4.54,4.19c4.68,3.32,9.93,5.91,15.07,8.43c7.3,3.58,14.73,6.87,22.21,10.05
				c15.51,6.58,31.24,12.79,47.25,18.08c4.86,1.61,9.81,3.3,14.86,4.2c2.08,0.37,3.86,0.47,5.94,0.05c2.44-0.5,4.78-1.52,7.04-2.51
				c6.45-2.84,12.56-6.48,18.53-10.19c7.51-4.66,14.85-9.62,22.04-14.76c7.14-5.1,14.16-10.37,20.96-15.91
				c4.79-3.89,9.64-7.88,13.79-12.47c1.27-1.4,2.57-2.9,3.35-4.63c1.17-2.61,1.54-5.44,1.86-8.26c0.88-7.76,0.68-15.67,0.36-23.45
				c-0.41-10.26-1.29-20.5-2.51-30.7c-1.21-10.03-2.69-20.06-4.91-29.92c-0.85-3.76-1.81-7.5-3.01-11.17
				c-0.6-1.82-2.46-3.01-4.38-2.49C646.84,583.71,645.54,585.77,646.14,587.6L646.14,587.6z"/>
		</g>
	</g>
	<g>
		<g>
			<path d="M595.85,465.21c0.88,1.32,1.68,2.69,2.37,4.12c0.16,0.34,0.31,0.69,0.47,1.03c-0.37-0.79,0.1,0.27,0.17,0.44
				c0.26,0.68,0.49,1.37,0.7,2.06c0.2,0.68,0.37,1.37,0.52,2.06c0.07,0.34,0.14,0.68,0.19,1.03c0.03,0.17,0.05,0.34,0.08,0.51
				c-0.07-0.41-0.06-0.54-0.01-0.05c0.13,1.36,0.19,2.72,0.12,4.08c-0.03,0.64-0.1,1.27-0.17,1.9c0.11-0.99-0.02,0.06-0.06,0.31
				c-0.07,0.38-0.14,0.75-0.23,1.13c-0.3,1.35-0.7,2.67-1.19,3.97c-0.05,0.12-0.46,1.13-0.26,0.68c0.2-0.46-0.19,0.42-0.25,0.55
				c-0.32,0.69-0.67,1.38-1.04,2.05c-0.74,1.34-1.56,2.64-2.45,3.89c-0.19,0.27-0.4,0.54-0.59,0.81c-0.31,0.42,0.35-0.45,0.03-0.03
				c-0.12,0.15-0.24,0.3-0.36,0.46c-0.53,0.65-1.07,1.29-1.63,1.92c-1.09,1.22-2.24,2.38-3.44,3.5c-1.25,1.17-2.56,2.27-3.9,3.34
				c-0.08,0.07-0.53,0.41-0.06,0.05c-0.18,0.13-0.35,0.27-0.53,0.4c-0.31,0.23-0.63,0.47-0.94,0.69c-0.78,0.56-1.57,1.11-2.37,1.65
				c-3.17,2.11-6.48,4-9.9,5.68c-3.77,1.86-6.79,3.11-10.78,4.52c-4.13,1.46-8.35,2.68-12.62,3.68c-2.17,0.51-4.36,0.96-6.56,1.36
				c-0.94,0.17-1.88,0.33-2.82,0.47c-0.49,0.08-0.98,0.15-1.47,0.22c-0.24,0.04-0.49,0.07-0.74,0.1c-0.12,0.02-0.25,0.03-0.37,0.05
				c0.27-0.04,0.28-0.04,0.03,0c-7.89,1.01-15.87,1.34-23.82,0.96c-1.94-0.09-3.88-0.23-5.81-0.41c-0.96-0.09-1.91-0.19-2.87-0.3
				c-0.42-0.05-0.83-0.1-1.25-0.15c-0.08-0.01-0.82-0.11-0.41-0.05c0.39,0.05-0.51-0.07-0.59-0.08c-3.7-0.53-7.37-1.22-11-2.11
				c-3.52-0.86-7-1.9-10.41-3.15c-0.76-0.28-1.52-0.57-2.27-0.87c-0.4-0.16-0.79-0.32-1.19-0.49c0.66,0.28-0.6-0.27-0.76-0.33
				c-1.52-0.68-3.01-1.4-4.48-2.18c-2.8-1.48-5.49-3.17-8.03-5.07c-0.09-0.07-0.57-0.44-0.21-0.16c0.36,0.28-0.12-0.09-0.2-0.16
				c-0.29-0.24-0.59-0.48-0.88-0.72c-0.61-0.51-1.21-1.03-1.79-1.57c-1.07-0.99-2.1-2.04-3.07-3.14c-0.45-0.51-0.86-1.04-1.3-1.55
				c-0.33-0.38,0.36,0.49,0.06,0.09c-0.1-0.14-0.21-0.28-0.32-0.43c-0.24-0.32-0.47-0.65-0.69-0.98c-0.8-1.16-1.52-2.37-2.17-3.61
				c-0.3-0.58-0.58-1.18-0.86-1.77c-0.37-0.82,0.17,0.48-0.15-0.36c-0.14-0.37-0.29-0.74-0.42-1.11c-0.48-1.33-0.86-2.7-1.16-4.08
				c-0.15-0.7-0.27-1.41-0.38-2.12c0.12,0.74,0.01,0.06-0.03-0.27c-0.04-0.41-0.08-0.82-0.11-1.24c-0.14-1.92-1.53-3.56-3.56-3.56
				c-1.82,0-3.7,1.63-3.56,3.56c0.47,6.41,2.49,12.6,6.1,17.94c3.74,5.53,8.74,10.03,14.32,13.65
				c12.78,8.28,28.25,12.03,43.25,13.46c17.08,1.63,34.67,0.01,51.11-4.93c15.16-4.55,30.84-12.11,41.25-24.4
				c4.18-4.94,7.63-10.73,8.86-17.16c1.26-6.57,0.28-13.09-2.59-19.12c-0.7-1.47-1.53-2.88-2.43-4.25c-1.06-1.6-3.14-2.29-4.87-1.28
				C595.54,461.28,594.79,463.61,595.85,465.21L595.85,465.21z"/>
		</g>
	</g>
	<g>
		<g>
			<path d="M584.26,471.67c0.2,0.4,0.38,0.82,0.58,1.21c-0.23-0.46-0.19-0.48-0.02-0.04c0.09,0.24,0.18,0.48,0.26,0.72
				c0.3,0.87,0.53,1.77,0.69,2.68c0.03,0.14,0.15,0.87,0.05,0.25c-0.1-0.62,0.01,0.11,0.02,0.25c0.04,0.45,0.07,0.9,0.08,1.35
				c0.01,0.42,0,0.83-0.02,1.25c-0.01,0.21-0.03,0.42-0.04,0.62c-0.01,0.16-0.12,0.98-0.03,0.36c0.09-0.62-0.02,0.11-0.05,0.25
				c-0.04,0.21-0.08,0.42-0.12,0.62c-0.1,0.49-0.22,0.97-0.36,1.45c-0.12,0.42-0.26,0.83-0.4,1.24c-0.07,0.21-0.16,0.41-0.23,0.62
				c-0.29,0.75,0.23-0.46-0.03,0.07c-0.89,1.82-1.91,3.46-3.08,5.11c-0.11,0.16,0.39-0.48-0.06,0.06c-0.16,0.19-0.32,0.39-0.48,0.58
				c-0.36,0.43-0.73,0.84-1.11,1.25c-0.76,0.82-1.57,1.6-2.4,2.35c-0.42,0.37-0.84,0.74-1.27,1.1c-0.22,0.18-0.44,0.36-0.66,0.54
				c-0.11,0.09-0.23,0.18-0.34,0.27c0.24-0.19,0.32-0.24,0.03-0.02c-1.05,0.78-2.11,1.53-3.21,2.24c-2.28,1.47-4.66,2.79-7.11,3.96
				c-0.68,0.33-1.36,0.64-2.05,0.95c-0.32,0.14-0.65,0.29-0.97,0.42c-0.38,0.16-0.04,0.02,0.03-0.01c-0.22,0.09-0.44,0.18-0.67,0.27
				c-1.43,0.58-2.88,1.12-4.33,1.62c-13.16,4.54-26.5,6.24-40.37,5.74c-6.75-0.24-12.46-0.91-18.93-2.29
				c-3.01-0.64-6-1.42-8.93-2.35c-1.37-0.43-2.73-0.9-4.07-1.41c-0.63-0.24-1.25-0.48-1.87-0.73c-0.15-0.06-0.31-0.13-0.46-0.19
				c0.06,0.02,0.47,0.2,0.09,0.04c-0.35-0.15-0.7-0.3-1.04-0.46c-2.4-1.08-4.73-2.29-6.96-3.69c-1.01-0.64-1.99-1.32-2.95-2.02
				c-0.55-0.4,0.37,0.31-0.16-0.12c-0.21-0.17-0.42-0.34-0.63-0.52c-0.44-0.37-0.88-0.75-1.3-1.14c-0.82-0.75-1.59-1.55-2.32-2.39
				c-0.16-0.19-0.32-0.38-0.48-0.57c-0.45-0.54,0.06,0.11-0.04-0.05c-0.28-0.44-0.61-0.84-0.89-1.28c-0.53-0.82-0.98-1.67-1.39-2.54
				c-0.3-0.64,0.06,0.21,0,0.01c-0.07-0.25-0.19-0.49-0.27-0.74c-0.16-0.46-0.3-0.93-0.42-1.4c-0.11-0.44-0.19-0.87-0.27-1.31
				c-0.13-0.72,0.01,0.28,0.01,0.06c0-0.26-0.05-0.53-0.07-0.79c-0.13-1.92-1.54-3.56-3.56-3.56c-1.83,0-3.69,1.63-3.56,3.56
				c0.69,10.37,8.81,17.84,17.43,22.55c11.48,6.27,24.73,9.09,37.67,10.14c14.65,1.19,29.69-0.23,43.78-4.44
				c11.16-3.33,22.79-8.63,30.64-17.52c5.86-6.64,9.34-15.65,6.25-24.38c-0.41-1.16-0.9-2.3-1.46-3.39
				c-0.88-1.71-3.28-2.21-4.87-1.28C583.8,467.81,583.38,469.95,584.26,471.67L584.26,471.67z"/>
		</g>
	</g>
	<g>
		<g>
			<path d="M548.29,526.03c1.28,6.41,2.6,12.81,3.9,19.22c0.59,2.9,1.18,5.81,1.74,8.71c0.16,0.83,0.3,1.67,0.47,2.5
				c0.11,0.58-0.16-0.08-0.03-0.28c-0.08,0.12,0.05,0.66,0.05,0.83c0,0.3-0.03,0.6-0.03,0.89c-0.01,0.6,0.02-0.15,0.04-0.25
				c-0.05,0.24-0.08,0.47-0.14,0.71c-0.08,0.32-0.19,0.63-0.28,0.95c-0.17,0.59,0.01-0.05,0.07-0.15c-0.08,0.15-0.15,0.3-0.24,0.45
				c-0.1,0.18-0.26,0.36-0.34,0.54c-0.18,0.4,0.43-0.36,0.07-0.11c-0.2,0.14-1.06,0.82-0.4,0.42c-0.2,0.12-0.42,0.24-0.62,0.37
				c-0.43,0.28,0.53-0.17,0.02,0.01c-0.47,0.16-0.95,0.3-1.44,0.38c0.54-0.08-0.85,0.03-0.96,0.03c-0.25,0-0.51,0-0.76-0.01
				c-0.13-0.01-1.16-0.1-0.52-0.02c-0.47-0.06-0.93-0.17-1.38-0.3c-0.23-0.06-1.28-0.47-0.73-0.22c-0.39-0.18-0.74-0.41-1.12-0.61
				c-0.55-0.29-0.17-0.1-0.02,0.02c-0.23-0.19-0.43-0.41-0.65-0.6c-0.45-0.38-0.11-0.1,0,0.06c-0.11-0.15-0.22-0.31-0.31-0.47
				c-0.1-0.16-0.18-0.33-0.26-0.5c0.33,0.71,0.07,0.13,0.03-0.08c-0.13-0.77-0.05,0.03-0.04-0.17c0.01-0.17-0.03-0.35-0.04-0.51
				c-0.42-5.23-1.03-10.44-1.58-15.65c-0.34-3.26-0.68-6.53-1-9.8c-0.17-1.75-0.47-3.56-0.44-5.32c0.03-1.92-1.66-3.56-3.56-3.56
				c-1.95,0-3.53,1.63-3.56,3.56c-0.02,1.62,0.24,3.29,0.4,4.9c0.3,3.13,0.63,6.26,0.96,9.39c0.58,5.55,1.23,11.09,1.68,16.65
				c0.16,1.96,0.56,3.77,1.75,5.38c1.54,2.08,3.67,3.44,6.11,4.25c4.48,1.48,10.55,0.98,13.73-2.87c2.41-2.92,3.02-6.58,2.41-10.25
				c-0.4-2.36-0.9-4.71-1.37-7.06c-1.56-7.78-3.17-15.55-4.73-23.33c-0.38-1.89-2.62-2.97-4.38-2.49
				C548.81,522.2,547.91,524.14,548.29,526.03L548.29,526.03z"/>
		</g>
	</g>
</g>
</svg>
